<svg width="748" height="400" viewBox="0 0 748 400" fill="none" xmlns="http://www.w3.org/2000/svg">
<g clip-path="url(#clip0_18_127)">
<path d="M663.145 78.5954H664.511L667.724 86.4435H667.835L671.048 78.5954H672.415V88.05H671.344V80.8667H671.251L668.297 88.05H667.263L664.308 80.8667H664.216V88.05H663.145V78.5954ZM677.536 88.1977C676.852 88.1977 676.263 88.0469 675.767 87.7453C675.275 87.4406 674.895 87.0159 674.627 86.4712C674.363 85.9233 674.23 85.2863 674.23 84.5599C674.23 83.8336 674.363 83.1935 674.627 82.6395C674.895 82.0824 675.267 81.6485 675.744 81.3376C676.225 81.0237 676.785 80.8667 677.425 80.8667C677.794 80.8667 678.159 80.9283 678.519 81.0514C678.879 81.1745 679.207 81.3746 679.502 81.6516C679.798 81.9255 680.033 82.2886 680.209 82.741C680.384 83.1935 680.472 83.7505 680.472 84.4122V84.8739H675.006V83.9321H679.364C679.364 83.532 679.284 83.175 679.124 82.8611C678.967 82.5471 678.742 82.2994 678.45 82.1178C678.16 81.9362 677.819 81.8454 677.425 81.8454C676.991 81.8454 676.615 81.9532 676.298 82.1686C675.984 82.381 675.743 82.6579 675.574 82.9996C675.404 83.3412 675.32 83.7074 675.32 84.0983V84.7261C675.32 85.2616 675.412 85.7156 675.597 86.088C675.784 86.4573 676.044 86.7389 676.377 86.9328C676.709 87.1236 677.095 87.219 677.536 87.219C677.822 87.219 678.08 87.179 678.311 87.099C678.545 87.0159 678.747 86.8928 678.916 86.7297C679.085 86.5635 679.216 86.3573 679.308 86.1111L680.361 86.4065C680.25 86.7635 680.064 87.0774 679.802 87.3483C679.541 87.616 679.218 87.8253 678.833 87.9761C678.448 88.1239 678.016 88.1977 677.536 88.1977ZM684.807 88.1977C684.216 88.1977 683.694 88.0484 683.242 87.7499C682.789 87.4483 682.435 87.0236 682.18 86.4758C681.924 85.9249 681.797 85.2739 681.797 84.523C681.797 83.7782 681.924 83.1319 682.18 82.5841C682.435 82.0363 682.791 81.6131 683.246 81.3145C683.702 81.016 684.228 80.8667 684.825 80.8667C685.287 80.8667 685.651 80.9437 685.919 81.0976C686.19 81.2484 686.396 81.4207 686.538 81.6146C686.682 81.8054 686.795 81.9624 686.875 82.0855H686.967V78.5954H688.057V88.05H687.004V86.9605H686.875C686.795 87.0898 686.681 87.2529 686.533 87.4498C686.385 87.6437 686.175 87.8176 685.901 87.9715C685.627 88.1223 685.262 88.1977 684.807 88.1977ZM684.954 87.219C685.391 87.219 685.761 87.1051 686.062 86.8774C686.364 86.6466 686.593 86.328 686.75 85.9218C686.907 85.5125 686.986 85.04 686.986 84.5045C686.986 83.9752 686.909 83.512 686.755 83.115C686.601 82.7149 686.373 82.404 686.071 82.1824C685.77 81.9578 685.397 81.8454 684.954 81.8454C684.493 81.8454 684.108 81.9639 683.8 82.2009C683.495 82.4348 683.266 82.7533 683.112 83.1565C682.961 83.5566 682.886 84.006 682.886 84.5045C682.886 85.0093 682.963 85.4678 683.117 85.8802C683.274 86.2896 683.505 86.6158 683.809 86.8589C684.117 87.099 684.499 87.219 684.954 87.219ZM691.293 78.5954V88.05H690.203V78.5954H691.293ZM696.261 88.1977C695.578 88.1977 694.989 88.0469 694.493 87.7453C694.001 87.4406 693.621 87.0159 693.353 86.4712C693.088 85.9233 692.956 85.2863 692.956 84.5599C692.956 83.8336 693.088 83.1935 693.353 82.6395C693.621 82.0824 693.993 81.6485 694.47 81.3376C694.95 81.0237 695.51 80.8667 696.15 80.8667C696.52 80.8667 696.884 80.9283 697.244 81.0514C697.605 81.1745 697.932 81.3746 698.228 81.6516C698.523 81.9255 698.759 82.2886 698.934 82.741C699.11 83.1935 699.197 83.7505 699.197 84.4122V84.8739H693.731V83.9321H698.089C698.089 83.532 698.009 83.175 697.849 82.8611C697.692 82.5471 697.468 82.2994 697.175 82.1178C696.886 81.9362 696.544 81.8454 696.15 81.8454C695.716 81.8454 695.341 81.9532 695.024 82.1686C694.71 82.381 694.468 82.6579 694.299 82.9996C694.13 83.3412 694.045 83.7074 694.045 84.0983V84.7261C694.045 85.2616 694.138 85.7156 694.322 86.088C694.51 86.4573 694.77 86.7389 695.102 86.9328C695.435 87.1236 695.821 87.219 696.261 87.219C696.547 87.219 696.806 87.179 697.037 87.099C697.271 87.0159 697.472 86.8928 697.642 86.7297C697.811 86.5635 697.942 86.3573 698.034 86.1111L699.086 86.4065C698.976 86.7635 698.789 87.0774 698.528 87.3483C698.266 87.616 697.943 87.8253 697.558 87.9761C697.174 88.1239 696.741 88.1977 696.261 88.1977ZM700.855 88.05V80.9591H701.907V82.067H701.999C702.147 81.6885 702.386 81.3946 702.715 81.1853C703.044 80.9729 703.44 80.8667 703.901 80.8667C704.369 80.8667 704.759 80.9729 705.069 81.1853C705.383 81.3946 705.628 81.6885 705.803 82.067H705.877C706.059 81.7008 706.331 81.41 706.694 81.1945C707.058 80.976 707.493 80.8667 708.001 80.8667C708.635 80.8667 709.153 81.0653 709.557 81.4623C709.96 81.8562 710.161 82.4702 710.161 83.3042V88.05H709.072V83.3042C709.072 82.781 708.929 82.4071 708.643 82.1824C708.356 81.9578 708.019 81.8454 707.632 81.8454C707.133 81.8454 706.747 81.9962 706.473 82.2979C706.199 82.5964 706.062 82.9749 706.062 83.4335V88.05H704.954V83.1935C704.954 82.7903 704.823 82.4656 704.562 82.2194C704.3 81.9701 703.963 81.8454 703.551 81.8454C703.267 81.8454 703.003 81.9208 702.757 82.0716C702.513 82.2225 702.316 82.4317 702.166 82.6995C702.018 82.9642 701.944 83.2704 701.944 83.6182V88.05H700.855ZM712.153 88.05V80.9591H713.206V82.067H713.298C713.446 81.6885 713.685 81.3946 714.014 81.1853C714.343 80.9729 714.739 80.8667 715.2 80.8667C715.668 80.8667 716.057 80.9729 716.368 81.1853C716.682 81.3946 716.927 81.6885 717.102 82.067H717.176C717.358 81.7008 717.63 81.41 717.993 81.1945C718.356 80.976 718.792 80.8667 719.3 80.8667C719.934 80.8667 720.452 81.0653 720.855 81.4623C721.259 81.8562 721.46 82.4702 721.46 83.3042V88.05H720.371V83.3042C720.371 82.781 720.228 82.4071 719.941 82.1824C719.655 81.9578 719.318 81.8454 718.93 81.8454C718.432 81.8454 718.046 81.9962 717.772 82.2979C717.498 82.5964 717.361 82.9749 717.361 83.4335V88.05H716.253V83.1935C716.253 82.7903 716.122 82.4656 715.86 82.2194C715.599 81.9701 715.262 81.8454 714.849 81.8454C714.566 81.8454 714.302 81.9208 714.055 82.0716C713.812 82.2225 713.615 82.4317 713.464 82.6995C713.317 82.9642 713.243 83.2704 713.243 83.6182V88.05H712.153ZM726.425 88.1977C725.742 88.1977 725.153 88.0469 724.657 87.7453C724.165 87.4406 723.785 87.0159 723.517 86.4712C723.252 85.9233 723.12 85.2863 723.12 84.5599C723.12 83.8336 723.252 83.1935 723.517 82.6395C723.785 82.0824 724.157 81.6485 724.634 81.3376C725.114 81.0237 725.674 80.8667 726.314 80.8667C726.684 80.8667 727.048 80.9283 727.409 81.0514C727.769 81.1745 728.096 81.3746 728.392 81.6516C728.687 81.9255 728.923 82.2886 729.098 82.741C729.274 83.1935 729.361 83.7505 729.361 84.4122V84.8739H723.895V83.9321H728.253C728.253 83.532 728.173 83.175 728.013 82.8611C727.856 82.5471 727.632 82.2994 727.339 82.1178C727.05 81.9362 726.708 81.8454 726.314 81.8454C725.881 81.8454 725.505 81.9532 725.188 82.1686C724.874 82.381 724.633 82.6579 724.463 82.9996C724.294 83.3412 724.209 83.7074 724.209 84.0983V84.7261C724.209 85.2616 724.302 85.7156 724.486 86.088C724.674 86.4573 724.934 86.7389 725.267 86.9328C725.599 87.1236 725.985 87.219 726.425 87.219C726.711 87.219 726.97 87.179 727.201 87.099C727.435 87.0159 727.636 86.8928 727.806 86.7297C727.975 86.5635 728.106 86.3573 728.198 86.1111L729.251 86.4065C729.14 86.7635 728.954 87.0774 728.692 87.3483C728.43 87.616 728.107 87.8253 727.722 87.9761C727.338 88.1239 726.905 88.1977 726.425 88.1977ZM731.019 88.05V80.9591H732.071V82.0301H732.145C732.274 81.6792 732.508 81.3946 732.847 81.1761C733.185 80.9575 733.567 80.8483 733.992 80.8483C734.072 80.8483 734.172 80.8498 734.292 80.8529C734.412 80.856 734.503 80.8606 734.564 80.8667V81.9747C734.527 81.9655 734.443 81.9516 734.31 81.9332C734.181 81.9116 734.044 81.9008 733.899 81.9008C733.555 81.9008 733.247 81.9732 732.976 82.1178C732.708 82.2594 732.496 82.4564 732.339 82.7087C732.185 82.958 732.108 83.2427 732.108 83.5628V88.05H731.019Z" fill="#FFFDFD"/>
<path d="M657 77H631V90H657V77Z" fill="#E0440E"/>
<path d="M618 323H130V324H618V323Z" fill="#CCCCCC"/>
<path d="M618 282H130V283H618V282Z" fill="#CCCCCC"/>
<path d="M618 241H130V242H618V241Z" fill="#CCCCCC"/>
<path d="M618 200H130V201H618V200Z" fill="#CCCCCC"/>
<path d="M618 159H130V160H618V159Z" fill="#CCCCCC"/>
<path d="M618 118H130V119H618V118Z" fill="#CCCCCC"/>
<path d="M618 77H130V78H618V77Z" fill="#CCCCCC"/>
<path d="M618 303H130V304H618V303Z" fill="#EBEBEB"/>
<path d="M618 262H130V263H618V262Z" fill="#EBEBEB"/>
<path d="M618 221H130V222H618V221Z" fill="#EBEBEB"/>
<path d="M618 180H130V181H618V180Z" fill="#EBEBEB"/>
<path d="M618 139H130V140H618V139Z" fill="#EBEBEB"/>
<path d="M618 98H130V99H618V98Z" fill="#EBEBEB"/>
<path d="M187 299H144V8195H187V299Z" fill="#E0440E"/>
<path d="M256 246H213V8195H256V246Z" fill="#E0440E"/>
<path d="M326 210H283V8195H326V210Z" fill="#E0440E"/>
<path d="M395 174H353V8195H395V174Z" fill="#E0440E"/>
<path d="M465 138H422V8195H465V138Z" fill="#E0440E"/>
<path d="M535 102H492V8195H535V102Z" fill="#E0440E"/>
<path d="M604 147H561V8195H604V147Z" fill="#E0440E"/>
<path d="M152.223 343.05V342.219L155.344 338.803C155.71 338.403 156.012 338.055 156.249 337.76C156.486 337.461 156.661 337.181 156.775 336.919C156.892 336.655 156.951 336.378 156.951 336.088C156.951 335.756 156.871 335.468 156.711 335.225C156.554 334.982 156.338 334.794 156.064 334.662C155.79 334.53 155.483 334.463 155.141 334.463C154.778 334.463 154.461 334.539 154.19 334.69C153.922 334.837 153.715 335.045 153.567 335.313C153.422 335.581 153.35 335.894 153.35 336.255H152.26C152.26 335.701 152.388 335.214 152.643 334.796C152.899 334.377 153.247 334.051 153.687 333.817C154.13 333.583 154.627 333.466 155.178 333.466C155.732 333.466 156.223 333.583 156.651 333.817C157.078 334.051 157.414 334.366 157.657 334.763C157.9 335.16 158.022 335.602 158.022 336.088C158.022 336.436 157.959 336.776 157.832 337.109C157.709 337.438 157.494 337.806 157.186 338.212C156.881 338.615 156.458 339.108 155.917 339.689L153.793 341.96V342.034H158.188V343.05H152.223ZM163.178 343.179C162.483 343.179 161.89 342.99 161.401 342.611C160.912 342.23 160.538 341.677 160.279 340.954C160.021 340.228 159.891 339.351 159.891 338.323C159.891 337.301 160.021 336.428 160.279 335.705C160.541 334.979 160.916 334.425 161.406 334.043C161.898 333.659 162.489 333.466 163.178 333.466C163.868 333.466 164.457 333.659 164.946 334.043C165.439 334.425 165.814 334.979 166.073 335.705C166.334 336.428 166.465 337.301 166.465 338.323C166.465 339.351 166.336 340.228 166.077 340.954C165.819 341.677 165.445 342.23 164.956 342.611C164.466 342.99 163.874 343.179 163.178 343.179ZM163.178 342.164C163.868 342.164 164.403 341.831 164.785 341.166C165.166 340.502 165.357 339.554 165.357 338.323C165.357 337.504 165.27 336.807 165.094 336.231C164.922 335.656 164.672 335.217 164.346 334.916C164.023 334.614 163.634 334.463 163.178 334.463C162.495 334.463 161.961 334.8 161.576 335.474C161.192 336.145 160.999 337.095 160.999 338.323C160.999 339.141 161.085 339.837 161.258 340.409C161.43 340.982 161.678 341.417 162.001 341.716C162.327 342.014 162.72 342.164 163.178 342.164ZM171.543 333.595V343.05H170.398V334.796H170.343L168.035 336.328V335.165L170.398 333.595H171.543ZM177.586 333.595V343.05H176.441V334.796H176.386L174.078 336.328V335.165L176.441 333.595H177.586Z" fill="#FFFEFE"/>
<path d="M220.881 343.05V342.219L224.002 338.803C224.368 338.403 224.669 338.055 224.906 337.76C225.143 337.461 225.319 337.181 225.433 336.919C225.55 336.655 225.608 336.378 225.608 336.088C225.608 335.756 225.528 335.468 225.368 335.225C225.211 334.982 224.996 334.794 224.722 334.662C224.448 334.53 224.14 334.463 223.798 334.463C223.435 334.463 223.118 334.539 222.847 334.69C222.58 334.837 222.372 335.045 222.224 335.313C222.08 335.581 222.007 335.894 222.007 336.255H220.918C220.918 335.701 221.045 335.214 221.301 334.796C221.556 334.377 221.904 334.051 222.344 333.817C222.787 333.583 223.284 333.466 223.835 333.466C224.389 333.466 224.88 333.583 225.308 333.817C225.736 334.051 226.071 334.366 226.314 334.763C226.557 335.16 226.679 335.602 226.679 336.088C226.679 336.436 226.616 336.776 226.49 337.109C226.367 337.438 226.151 337.806 225.843 338.212C225.539 338.615 225.116 339.108 224.574 339.689L222.45 341.96V342.034H226.845V343.05H220.881ZM231.836 343.179C231.14 343.179 230.548 342.99 230.058 342.611C229.569 342.23 229.195 341.677 228.937 340.954C228.678 340.228 228.549 339.351 228.549 338.323C228.549 337.301 228.678 336.428 228.937 335.705C229.198 334.979 229.574 334.425 230.063 334.043C230.555 333.659 231.146 333.466 231.836 333.466C232.525 333.466 233.114 333.659 233.604 334.043C234.096 334.425 234.472 334.979 234.73 335.705C234.992 336.428 235.123 337.301 235.123 338.323C235.123 339.351 234.993 340.228 234.735 340.954C234.476 341.677 234.102 342.23 233.613 342.611C233.124 342.99 232.531 343.179 231.836 343.179ZM231.836 342.164C232.525 342.164 233.061 341.831 233.442 341.166C233.824 340.502 234.015 339.554 234.015 338.323C234.015 337.504 233.927 336.807 233.752 336.231C233.579 335.656 233.33 335.217 233.004 334.916C232.68 334.614 232.291 334.463 231.836 334.463C231.152 334.463 230.618 334.8 230.234 335.474C229.849 336.145 229.657 337.095 229.657 338.323C229.657 339.141 229.743 339.837 229.915 340.409C230.088 340.982 230.335 341.417 230.658 341.716C230.985 342.014 231.377 342.164 231.836 342.164ZM240.201 333.595V343.05H239.056V334.796H239L236.692 336.328V335.165L239.056 333.595H240.201ZM242.92 343.05V342.219L246.041 338.803C246.407 338.403 246.708 338.055 246.945 337.76C247.182 337.461 247.358 337.181 247.472 336.919C247.589 336.655 247.647 336.378 247.647 336.088C247.647 335.756 247.567 335.468 247.407 335.225C247.25 334.982 247.035 334.794 246.761 334.662C246.487 334.53 246.179 334.463 245.837 334.463C245.474 334.463 245.157 334.539 244.886 334.69C244.619 334.837 244.411 335.045 244.263 335.313C244.119 335.581 244.046 335.894 244.046 336.255H242.957C242.957 335.701 243.084 335.214 243.34 334.796C243.595 334.377 243.943 334.051 244.383 333.817C244.826 333.583 245.323 333.466 245.874 333.466C246.428 333.466 246.919 333.583 247.347 333.817C247.775 334.051 248.11 334.366 248.353 334.763C248.597 335.16 248.718 335.602 248.718 336.088C248.718 336.436 248.655 336.776 248.529 337.109C248.406 337.438 248.19 337.806 247.883 338.212C247.578 338.615 247.155 339.108 246.613 339.689L244.489 341.96V342.034H248.884V343.05H242.92Z" fill="#FFFEFE"/>
<path d="M290.249 343.05V342.219L293.37 338.803C293.736 338.403 294.038 338.055 294.275 337.76C294.512 337.461 294.687 337.181 294.801 336.919C294.918 336.655 294.976 336.378 294.976 336.088C294.976 335.756 294.896 335.468 294.736 335.225C294.579 334.982 294.364 334.794 294.09 334.662C293.816 334.53 293.508 334.463 293.167 334.463C292.803 334.463 292.487 334.539 292.216 334.69C291.948 334.837 291.74 335.045 291.592 335.313C291.448 335.581 291.375 335.894 291.375 336.255H290.286C290.286 335.701 290.414 335.214 290.669 334.796C290.925 334.377 291.272 334.051 291.712 333.817C292.156 333.583 292.653 333.466 293.204 333.466C293.758 333.466 294.248 333.583 294.676 333.817C295.104 334.051 295.44 334.366 295.683 334.763C295.926 335.16 296.047 335.602 296.047 336.088C296.047 336.436 295.984 336.776 295.858 337.109C295.735 337.438 295.52 337.806 295.212 338.212C294.907 338.615 294.484 339.108 293.942 339.689L291.819 341.96V342.034H296.214V343.05H290.249ZM301.204 343.179C300.508 343.179 299.916 342.99 299.427 342.611C298.937 342.23 298.563 341.677 298.305 340.954C298.046 340.228 297.917 339.351 297.917 338.323C297.917 337.301 298.046 336.428 298.305 335.705C298.566 334.979 298.942 334.425 299.431 334.043C299.924 333.659 300.515 333.466 301.204 333.466C301.893 333.466 302.483 333.659 302.972 334.043C303.464 334.425 303.84 334.979 304.098 335.705C304.36 336.428 304.491 337.301 304.491 338.323C304.491 339.351 304.362 340.228 304.103 340.954C303.845 341.677 303.471 342.23 302.981 342.611C302.492 342.99 301.899 343.179 301.204 343.179ZM301.204 342.164C301.893 342.164 302.429 341.831 302.81 341.166C303.192 340.502 303.383 339.554 303.383 338.323C303.383 337.504 303.295 336.807 303.12 336.231C302.947 335.656 302.698 335.217 302.372 334.916C302.049 334.614 301.659 334.463 301.204 334.463C300.521 334.463 299.987 334.8 299.602 335.474C299.217 336.145 299.025 337.095 299.025 338.323C299.025 339.141 299.111 339.837 299.283 340.409C299.456 340.982 299.704 341.417 300.027 341.716C300.353 342.014 300.745 342.164 301.204 342.164ZM309.569 333.595V343.05H308.424V334.796H308.369L306.06 336.328V335.165L308.424 333.595H309.569ZM315.483 343.179C314.873 343.179 314.33 343.075 313.853 342.865C313.379 342.656 313.002 342.365 312.722 341.993C312.445 341.617 312.294 341.182 312.27 340.686H313.433C313.458 340.991 313.562 341.254 313.747 341.476C313.932 341.694 314.173 341.864 314.472 341.984C314.77 342.104 315.101 342.164 315.464 342.164C315.87 342.164 316.231 342.093 316.545 341.951C316.858 341.81 317.105 341.613 317.283 341.36C317.462 341.108 317.551 340.816 317.551 340.483C317.551 340.135 317.465 339.829 317.292 339.565C317.12 339.297 316.868 339.088 316.535 338.937C316.203 338.786 315.797 338.71 315.317 338.71H314.559V337.695H315.317C315.692 337.695 316.021 337.627 316.304 337.492C316.591 337.356 316.814 337.166 316.974 336.919C317.137 336.673 317.219 336.384 317.219 336.051C317.219 335.731 317.148 335.453 317.006 335.216C316.865 334.979 316.665 334.794 316.406 334.662C316.151 334.53 315.849 334.463 315.501 334.463C315.175 334.463 314.867 334.523 314.578 334.643C314.292 334.76 314.058 334.931 313.876 335.156C313.695 335.377 313.596 335.645 313.581 335.959H312.473C312.491 335.464 312.641 335.03 312.921 334.657C313.201 334.282 313.567 333.989 314.019 333.78C314.475 333.571 314.975 333.466 315.52 333.466C316.104 333.466 316.606 333.585 317.025 333.822C317.443 334.056 317.765 334.365 317.989 334.75C318.214 335.134 318.326 335.55 318.326 335.996C318.326 336.528 318.186 336.982 317.906 337.358C317.629 337.733 317.252 337.993 316.775 338.138V338.212C317.372 338.31 317.839 338.564 318.174 338.974C318.51 339.38 318.677 339.883 318.677 340.483C318.677 340.997 318.537 341.459 318.257 341.868C317.98 342.274 317.602 342.594 317.122 342.828C316.641 343.062 316.095 343.179 315.483 343.179Z" fill="#FFFEFE"/>
<path d="M359.789 343.05V342.219L362.909 338.803C363.276 338.403 363.577 338.055 363.814 337.76C364.051 337.461 364.227 337.181 364.341 336.919C364.458 336.655 364.516 336.378 364.516 336.088C364.516 335.756 364.436 335.468 364.276 335.225C364.119 334.982 363.904 334.794 363.63 334.662C363.356 334.53 363.048 334.463 362.706 334.463C362.343 334.463 362.026 334.539 361.755 334.69C361.488 334.837 361.28 335.045 361.132 335.313C360.987 335.581 360.915 335.894 360.915 336.255H359.826C359.826 335.701 359.953 335.214 360.209 334.796C360.464 334.377 360.812 334.051 361.252 333.817C361.695 333.583 362.192 333.466 362.743 333.466C363.297 333.466 363.788 333.583 364.216 333.817C364.644 334.051 364.979 334.366 365.222 334.763C365.465 335.16 365.587 335.602 365.587 336.088C365.587 336.436 365.524 336.776 365.398 337.109C365.275 337.438 365.059 337.806 364.751 338.212C364.447 338.615 364.024 339.108 363.482 339.689L361.358 341.96V342.034H365.753V343.05H359.789ZM370.744 343.179C370.048 343.179 369.456 342.99 368.966 342.611C368.477 342.23 368.103 341.677 367.845 340.954C367.586 340.228 367.457 339.351 367.457 338.323C367.457 337.301 367.586 336.428 367.845 335.705C368.106 334.979 368.482 334.425 368.971 334.043C369.463 333.659 370.054 333.466 370.744 333.466C371.433 333.466 372.022 333.659 372.512 334.043C373.004 334.425 373.38 334.979 373.638 335.705C373.9 336.428 374.031 337.301 374.031 338.323C374.031 339.351 373.901 340.228 373.643 340.954C373.384 341.677 373.01 342.23 372.521 342.611C372.032 342.99 371.439 343.179 370.744 343.179ZM370.744 342.164C371.433 342.164 371.969 341.831 372.35 341.166C372.732 340.502 372.923 339.554 372.923 338.323C372.923 337.504 372.835 336.807 372.659 336.231C372.487 335.656 372.238 335.217 371.912 334.916C371.588 334.614 371.199 334.463 370.744 334.463C370.06 334.463 369.526 334.8 369.142 335.474C368.757 336.145 368.565 337.095 368.565 338.323C368.565 339.141 368.651 339.837 368.823 340.409C368.996 340.982 369.243 341.417 369.566 341.716C369.893 342.014 370.285 342.164 370.744 342.164ZM379.109 333.595V343.05H377.964V334.796H377.908L375.6 336.328V335.165L377.964 333.595H379.109ZM381.606 341.111V340.169L385.761 333.595H386.444V335.054H385.983L382.843 340.022V340.095H388.439V341.111H381.606ZM386.057 343.05V340.825V340.386V333.595H387.146V343.05H386.057Z" fill="#FFFEFE"/>
<path d="M429.576 343.05V342.219L432.697 338.803C433.063 338.403 433.365 338.055 433.602 337.76C433.839 337.461 434.014 337.181 434.128 336.919C434.245 336.655 434.303 336.378 434.303 336.088C434.303 335.756 434.223 335.468 434.063 335.225C433.906 334.982 433.691 334.794 433.417 334.662C433.143 334.53 432.835 334.463 432.494 334.463C432.13 334.463 431.813 334.539 431.543 334.69C431.275 334.837 431.067 335.045 430.919 335.313C430.775 335.581 430.702 335.894 430.702 336.255H429.613C429.613 335.701 429.741 335.214 429.996 334.796C430.252 334.377 430.599 334.051 431.039 333.817C431.483 333.583 431.98 333.466 432.531 333.466C433.085 333.466 433.575 333.583 434.003 333.817C434.431 334.051 434.766 334.366 435.01 334.763C435.253 335.16 435.374 335.602 435.374 336.088C435.374 336.436 435.311 336.776 435.185 337.109C435.062 337.438 434.846 337.806 434.539 338.212C434.234 338.615 433.811 339.108 433.269 339.689L431.146 341.96V342.034H435.54V343.05H429.576ZM440.531 343.179C439.835 343.179 439.243 342.99 438.754 342.611C438.264 342.23 437.89 341.677 437.632 340.954C437.373 340.228 437.244 339.351 437.244 338.323C437.244 337.301 437.373 336.428 437.632 335.705C437.893 334.979 438.269 334.425 438.758 334.043C439.251 333.659 439.841 333.466 440.531 333.466C441.22 333.466 441.81 333.659 442.299 334.043C442.791 334.425 443.167 334.979 443.425 335.705C443.687 336.428 443.818 337.301 443.818 338.323C443.818 339.351 443.689 340.228 443.43 340.954C443.172 341.677 442.798 342.23 442.308 342.611C441.819 342.99 441.226 343.179 440.531 343.179ZM440.531 342.164C441.22 342.164 441.756 341.831 442.137 341.166C442.519 340.502 442.71 339.554 442.71 338.323C442.71 337.504 442.622 336.807 442.447 336.231C442.274 335.656 442.025 335.217 441.699 334.916C441.376 334.614 440.986 334.463 440.531 334.463C439.848 334.463 439.314 334.8 438.929 335.474C438.544 336.145 438.352 337.095 438.352 338.323C438.352 339.141 438.438 339.837 438.61 340.409C438.783 340.982 439.031 341.417 439.354 341.716C439.68 342.014 440.072 342.164 440.531 342.164ZM448.896 333.595V343.05H447.751V334.796H447.696L445.387 336.328V335.165L447.751 333.595H448.896ZM454.57 343.179C454.028 343.179 453.54 343.072 453.106 342.856C452.672 342.641 452.324 342.345 452.063 341.97C451.801 341.594 451.658 341.166 451.634 340.686H452.741C452.785 341.114 452.978 341.468 453.323 341.748C453.671 342.025 454.086 342.164 454.57 342.164C454.957 342.164 455.302 342.073 455.604 341.891C455.908 341.71 456.147 341.46 456.319 341.143C456.495 340.823 456.582 340.462 456.582 340.059C456.582 339.646 456.492 339.278 456.31 338.955C456.131 338.629 455.885 338.372 455.571 338.184C455.257 337.996 454.899 337.901 454.496 337.898C454.206 337.895 453.909 337.94 453.605 338.032C453.3 338.121 453.049 338.237 452.852 338.378L451.781 338.249L452.354 333.595H457.266V334.611H453.314L452.982 337.399H453.037C453.231 337.246 453.474 337.118 453.766 337.016C454.059 336.915 454.363 336.864 454.68 336.864C455.259 336.864 455.774 337.002 456.227 337.279C456.682 337.553 457.039 337.929 457.298 338.406C457.56 338.883 457.69 339.428 457.69 340.04C457.69 340.643 457.555 341.182 457.284 341.656C457.016 342.127 456.647 342.499 456.176 342.773C455.705 343.044 455.17 343.179 454.57 343.179Z" fill="#FFFEFE"/>
<path d="M499.046 343.05V342.219L502.167 338.803C502.533 338.403 502.834 338.055 503.071 337.76C503.308 337.461 503.484 337.181 503.598 336.919C503.715 336.655 503.773 336.378 503.773 336.088C503.773 335.756 503.693 335.468 503.533 335.225C503.376 334.982 503.161 334.794 502.887 334.662C502.613 334.53 502.305 334.463 501.963 334.463C501.6 334.463 501.283 334.539 501.012 334.69C500.745 334.837 500.537 335.045 500.389 335.313C500.245 335.581 500.172 335.894 500.172 336.255H499.083C499.083 335.701 499.21 335.214 499.466 334.796C499.721 334.377 500.069 334.051 500.509 333.817C500.952 333.583 501.449 333.466 502 333.466C502.554 333.466 503.045 333.583 503.473 333.817C503.901 334.051 504.236 334.366 504.479 334.763C504.723 335.16 504.844 335.602 504.844 336.088C504.844 336.436 504.781 336.776 504.655 337.109C504.532 337.438 504.316 337.806 504.009 338.212C503.704 338.615 503.281 339.108 502.739 339.689L500.615 341.96V342.034H505.01V343.05H499.046ZM510.001 343.179C509.305 343.179 508.713 342.99 508.223 342.611C507.734 342.23 507.36 341.677 507.102 340.954C506.843 340.228 506.714 339.351 506.714 338.323C506.714 337.301 506.843 336.428 507.102 335.705C507.363 334.979 507.739 334.425 508.228 334.043C508.72 333.659 509.311 333.466 510.001 333.466C510.69 333.466 511.279 333.659 511.769 334.043C512.261 334.425 512.637 334.979 512.895 335.705C513.157 336.428 513.288 337.301 513.288 338.323C513.288 339.351 513.158 340.228 512.9 340.954C512.641 341.677 512.267 342.23 511.778 342.611C511.289 342.99 510.696 343.179 510.001 343.179ZM510.001 342.164C510.69 342.164 511.226 341.831 511.607 341.166C511.989 340.502 512.18 339.554 512.18 338.323C512.18 337.504 512.092 336.807 511.917 336.231C511.744 335.656 511.495 335.217 511.169 334.916C510.846 334.614 510.456 334.463 510.001 334.463C509.317 334.463 508.784 334.8 508.399 335.474C508.014 336.145 507.822 337.095 507.822 338.323C507.822 339.141 507.908 339.837 508.08 340.409C508.253 340.982 508.5 341.417 508.824 341.716C509.15 342.014 509.542 342.164 510.001 342.164ZM518.366 333.595V343.05H517.221V334.796H517.166L514.857 336.328V335.165L517.221 333.595H518.366ZM524.224 343.179C523.836 343.173 523.449 343.099 523.061 342.958C522.673 342.816 522.319 342.578 521.999 342.242C521.679 341.904 521.422 341.447 521.228 340.871C521.034 340.292 520.937 339.566 520.937 338.692C520.937 337.855 521.016 337.113 521.173 336.467C521.33 335.818 521.557 335.271 521.856 334.828C522.154 334.382 522.514 334.043 522.936 333.812C523.361 333.582 523.839 333.466 524.372 333.466C524.901 333.466 525.372 333.572 525.784 333.785C526.2 333.994 526.538 334.286 526.8 334.662C527.062 335.037 527.231 335.47 527.308 335.959H526.181C526.077 335.534 525.874 335.182 525.572 334.902C525.271 334.622 524.87 334.482 524.372 334.482C523.639 334.482 523.062 334.8 522.641 335.437C522.222 336.074 522.011 336.969 522.008 338.12H522.082C522.254 337.858 522.459 337.635 522.696 337.45C522.936 337.262 523.201 337.118 523.49 337.016C523.779 336.915 524.086 336.864 524.409 336.864C524.95 336.864 525.446 336.999 525.895 337.27C526.345 337.538 526.705 337.909 526.976 338.383C527.246 338.854 527.382 339.394 527.382 340.003C527.382 340.588 527.251 341.123 526.989 341.61C526.728 342.093 526.36 342.478 525.886 342.764C525.415 343.047 524.861 343.185 524.224 343.179ZM524.224 342.164C524.612 342.164 524.96 342.067 525.267 341.873C525.578 341.679 525.823 341.419 526.001 341.093C526.183 340.766 526.274 340.403 526.274 340.003C526.274 339.612 526.186 339.257 526.011 338.937C525.838 338.614 525.6 338.357 525.295 338.166C524.994 337.975 524.649 337.88 524.261 337.88C523.969 337.88 523.696 337.938 523.444 338.055C523.192 338.169 522.97 338.326 522.779 338.526C522.591 338.726 522.444 338.955 522.336 339.214C522.228 339.469 522.174 339.738 522.174 340.022C522.174 340.397 522.262 340.748 522.438 341.074C522.616 341.4 522.859 341.664 523.167 341.864C523.478 342.064 523.83 342.164 524.224 342.164Z" fill="#FFFEFE"/>
<path d="M568.96 343.05V342.219L572.081 338.803C572.447 338.403 572.749 338.055 572.986 337.76C573.223 337.461 573.398 337.181 573.512 336.919C573.629 336.655 573.687 336.378 573.687 336.088C573.687 335.756 573.607 335.468 573.447 335.225C573.29 334.982 573.075 334.794 572.801 334.662C572.527 334.53 572.219 334.463 571.878 334.463C571.515 334.463 571.198 334.539 570.927 334.69C570.659 334.837 570.451 335.045 570.303 335.313C570.159 335.581 570.086 335.894 570.086 336.255H568.997C568.997 335.701 569.125 335.214 569.38 334.796C569.636 334.377 569.983 334.051 570.424 333.817C570.867 333.583 571.364 333.466 571.915 333.466C572.469 333.466 572.959 333.583 573.387 333.817C573.815 334.051 574.151 334.366 574.394 334.763C574.637 335.16 574.758 335.602 574.758 336.088C574.758 336.436 574.695 336.776 574.569 337.109C574.446 337.438 574.231 337.806 573.923 338.212C573.618 338.615 573.195 339.108 572.653 339.689L570.53 341.96V342.034H574.925V343.05H568.96ZM579.915 343.179C579.219 343.179 578.627 342.99 578.138 342.611C577.648 342.23 577.274 341.677 577.016 340.954C576.757 340.228 576.628 339.351 576.628 338.323C576.628 337.301 576.757 336.428 577.016 335.705C577.277 334.979 577.653 334.425 578.142 334.043C578.635 333.659 579.226 333.466 579.915 333.466C580.604 333.466 581.194 333.659 581.683 334.043C582.176 334.425 582.551 334.979 582.81 335.705C583.071 336.428 583.202 337.301 583.202 338.323C583.202 339.351 583.073 340.228 582.814 340.954C582.556 341.677 582.182 342.23 581.692 342.611C581.203 342.99 580.611 343.179 579.915 343.179ZM579.915 342.164C580.604 342.164 581.14 341.831 581.522 341.166C581.903 340.502 582.094 339.554 582.094 338.323C582.094 337.504 582.006 336.807 581.831 336.231C581.658 335.656 581.409 335.217 581.083 334.916C580.76 334.614 580.37 334.463 579.915 334.463C579.232 334.463 578.698 334.8 578.313 335.474C577.928 336.145 577.736 337.095 577.736 338.323C577.736 339.141 577.822 339.837 577.995 340.409C578.167 340.982 578.415 341.417 578.738 341.716C579.064 342.014 579.456 342.164 579.915 342.164ZM588.28 333.595V343.05H587.135V334.796H587.08L584.772 336.328V335.165L587.135 333.595H588.28ZM591.295 343.05L595.523 334.685V334.611H590.648V333.595H596.705V334.666L592.495 343.05H591.295Z" fill="#FFFEFE"/>
<path d="M69.3002 328.179C68.6909 328.179 68.1477 328.075 67.6706 327.865C67.1967 327.656 66.8197 327.365 66.5396 326.993C66.2626 326.617 66.1118 326.182 66.0872 325.686H67.2505C67.2752 325.991 67.3798 326.254 67.5645 326.476C67.7491 326.694 67.9907 326.864 68.2892 326.984C68.5878 327.104 68.9186 327.164 69.2818 327.164C69.688 327.164 70.0481 327.093 70.362 326.951C70.676 326.81 70.9222 326.613 71.1007 326.36C71.2792 326.108 71.3684 325.816 71.3684 325.483C71.3684 325.135 71.2823 324.829 71.1099 324.565C70.9376 324.297 70.6852 324.088 70.3528 323.937C70.0204 323.786 69.6142 323.71 69.1341 323.71H68.377V322.695H69.1341C69.5095 322.695 69.8388 322.627 70.122 322.492C70.4082 322.356 70.6313 322.166 70.7914 321.919C70.9545 321.673 71.036 321.384 71.036 321.051C71.036 320.731 70.9653 320.453 70.8237 320.216C70.6821 319.979 70.4821 319.794 70.2235 319.662C69.9681 319.53 69.6665 319.463 69.3187 319.463C68.9925 319.463 68.6847 319.523 68.3954 319.643C68.1092 319.76 67.8753 319.931 67.6937 320.156C67.5121 320.377 67.4136 320.645 67.3983 320.959H66.2903C66.3088 320.464 66.458 320.03 66.7381 319.657C67.0182 319.282 67.3844 318.989 67.8368 318.78C68.2923 318.571 68.7924 318.466 69.3372 318.466C69.9219 318.466 70.4236 318.585 70.8422 318.822C71.2607 319.056 71.5823 319.365 71.807 319.75C72.0317 320.134 72.144 320.55 72.144 320.996C72.144 321.528 72.004 321.982 71.7239 322.358C71.4469 322.733 71.0699 322.993 70.5929 323.138V323.212C71.1899 323.31 71.6562 323.564 71.9917 323.974C72.3271 324.38 72.4949 324.883 72.4949 325.483C72.4949 325.997 72.3548 326.459 72.0748 326.868C71.7978 327.274 71.4192 327.594 70.9391 327.828C70.459 328.062 69.9127 328.179 69.3002 328.179ZM77.4114 328.179C76.7774 328.179 76.2173 328.067 75.731 327.842C75.2478 327.615 74.8708 327.302 74.6 326.905C74.3291 326.505 74.1953 326.05 74.1983 325.539C74.1953 325.139 74.2737 324.769 74.4338 324.431C74.5938 324.089 74.8123 323.804 75.0893 323.577C75.3694 323.346 75.6818 323.2 76.0265 323.138V323.083C75.574 322.966 75.214 322.712 74.9462 322.321C74.6784 321.927 74.5461 321.479 74.5492 320.978C74.5461 320.497 74.6677 320.068 74.9139 319.69C75.1601 319.311 75.4986 319.012 75.9295 318.794C76.3635 318.575 76.8574 318.466 77.4114 318.466C77.9592 318.466 78.4486 318.575 78.8794 318.794C79.3103 319.012 79.6489 319.311 79.8951 319.69C80.1444 320.068 80.2705 320.497 80.2736 320.978C80.2705 321.479 80.1336 321.927 79.8627 322.321C79.595 322.712 79.2395 322.966 78.7963 323.083V323.138C79.138 323.2 79.4457 323.346 79.7196 323.577C79.9935 323.804 80.2121 324.089 80.3752 324.431C80.5383 324.769 80.6214 325.139 80.6245 325.539C80.6214 326.05 80.4829 326.505 80.209 326.905C79.9382 327.302 79.5611 327.615 79.0779 327.842C78.5978 328.067 78.0423 328.179 77.4114 328.179ZM77.4114 327.164C77.8392 327.164 78.2085 327.094 78.5194 326.956C78.8302 326.817 79.0703 326.622 79.2395 326.37C79.4088 326.117 79.495 325.822 79.498 325.483C79.495 325.126 79.4026 324.811 79.2211 324.537C79.0395 324.263 78.7917 324.048 78.4778 323.891C78.167 323.734 77.8115 323.655 77.4114 323.655C77.0082 323.655 76.6481 323.734 76.3311 323.891C76.0172 324.048 75.7695 324.263 75.5879 324.537C75.4094 324.811 75.3217 325.126 75.3248 325.483C75.3217 325.822 75.4032 326.117 75.5694 326.37C75.7387 326.622 75.9803 326.817 76.2942 326.956C76.6081 327.094 76.9805 327.164 77.4114 327.164ZM77.4114 322.676C77.7499 322.676 78.05 322.609 78.3116 322.473C78.5763 322.338 78.784 322.149 78.9348 321.905C79.0856 321.662 79.1626 321.378 79.1657 321.051C79.1626 320.731 79.0872 320.453 78.9395 320.216C78.7917 319.976 78.5871 319.791 78.3255 319.662C78.0639 319.53 77.7592 319.463 77.4114 319.463C77.0575 319.463 76.7482 319.53 76.4835 319.662C76.2188 319.791 76.0141 319.976 75.8695 320.216C75.7248 320.453 75.6541 320.731 75.6571 321.051C75.6541 321.378 75.7264 321.662 75.8741 321.905C76.0249 322.149 76.2327 322.338 76.4973 322.473C76.762 322.609 77.0667 322.676 77.4114 322.676ZM82.1721 326.111V325.169L86.327 318.595H87.0102V320.054H86.5486L83.4094 325.022V325.095H89.0045V326.111H82.1721ZM86.6224 328.05V325.825V325.386V318.595H87.7119V328.05H86.6224ZM91.9337 326.757L91.8598 327.256C91.8075 327.607 91.7275 327.982 91.6198 328.382C91.5151 328.782 91.4059 329.159 91.292 329.513C91.1781 329.867 91.0843 330.149 91.0104 330.358H90.1794C90.2194 330.161 90.2718 329.901 90.3364 329.578C90.401 329.255 90.4656 328.893 90.5303 328.493C90.598 328.096 90.6534 327.69 90.6965 327.274L90.7519 326.757H91.9337ZM96.6875 328.179C95.992 328.179 95.3995 327.99 94.9102 327.611C94.4208 327.23 94.0469 326.677 93.7884 325.954C93.5298 325.228 93.4006 324.351 93.4006 323.323C93.4006 322.301 93.5298 321.428 93.7884 320.705C94.05 319.979 94.4254 319.425 94.9148 319.043C95.4072 318.659 95.9981 318.466 96.6875 318.466C97.3769 318.466 97.9663 318.659 98.4556 319.043C98.948 319.425 99.3235 319.979 99.582 320.705C99.8436 321.428 99.9744 322.301 99.9744 323.323C99.9744 324.351 99.8452 325.228 99.5866 325.954C99.3281 326.677 98.9542 327.23 98.4648 327.611C97.9755 327.99 97.383 328.179 96.6875 328.179ZM96.6875 327.164C97.3769 327.164 97.9124 326.831 98.294 326.166C98.6757 325.502 98.8665 324.554 98.8665 323.323C98.8665 322.504 98.7788 321.807 98.6033 321.231C98.431 320.656 98.1817 320.217 97.8555 319.916C97.5323 319.614 97.143 319.463 96.6875 319.463C96.0043 319.463 95.4703 319.8 95.0856 320.474C94.7009 321.145 94.5085 322.095 94.5085 323.323C94.5085 324.141 94.5947 324.837 94.767 325.409C94.9394 325.982 95.1871 326.417 95.5103 326.716C95.8365 327.014 96.2289 327.164 96.6875 327.164ZM104.812 328.179C104.117 328.179 103.525 327.99 103.035 327.611C102.546 327.23 102.172 326.677 101.913 325.954C101.655 325.228 101.526 324.351 101.526 323.323C101.526 322.301 101.655 321.428 101.913 320.705C102.175 319.979 102.55 319.425 103.04 319.043C103.532 318.659 104.123 318.466 104.812 318.466C105.502 318.466 106.091 318.659 106.581 319.043C107.073 319.425 107.449 319.979 107.707 320.705C107.969 321.428 108.099 322.301 108.099 323.323C108.099 324.351 107.97 325.228 107.712 325.954C107.453 326.677 107.079 327.23 106.59 327.611C106.1 327.99 105.508 328.179 104.812 328.179ZM104.812 327.164C105.502 327.164 106.037 326.831 106.419 326.166C106.801 325.502 106.991 324.554 106.991 323.323C106.991 322.504 106.904 321.807 106.728 321.231C106.556 320.656 106.307 320.217 105.98 319.916C105.657 319.614 105.268 319.463 104.812 319.463C104.129 319.463 103.595 319.8 103.211 320.474C102.826 321.145 102.634 322.095 102.634 323.323C102.634 324.141 102.72 324.837 102.892 325.409C103.064 325.982 103.312 326.417 103.635 326.716C103.962 327.014 104.354 327.164 104.812 327.164ZM112.938 328.179C112.242 328.179 111.65 327.99 111.16 327.611C110.671 327.23 110.297 326.677 110.038 325.954C109.78 325.228 109.651 324.351 109.651 323.323C109.651 322.301 109.78 321.428 110.038 320.705C110.3 319.979 110.675 319.425 111.165 319.043C111.657 318.659 112.248 318.466 112.938 318.466C113.627 318.466 114.216 318.659 114.706 319.043C115.198 319.425 115.574 319.979 115.832 320.705C116.094 321.428 116.224 322.301 116.224 323.323C116.224 324.351 116.095 325.228 115.837 325.954C115.578 326.677 115.204 327.23 114.715 327.611C114.225 327.99 113.633 328.179 112.938 328.179ZM112.938 327.164C113.627 327.164 114.162 326.831 114.544 326.166C114.926 325.502 115.116 324.554 115.116 323.323C115.116 322.504 115.029 321.807 114.853 321.231C114.681 320.656 114.432 320.217 114.105 319.916C113.782 319.614 113.393 319.463 112.938 319.463C112.254 319.463 111.72 319.8 111.336 320.474C110.951 321.145 110.759 322.095 110.759 323.323C110.759 324.141 110.845 324.837 111.017 325.409C111.189 325.982 111.437 326.417 111.76 326.716C112.087 327.014 112.479 327.164 112.938 327.164Z" fill="#FFFCFC"/>
<path d="M69.5288 287.179C68.9194 287.179 68.3762 287.075 67.8991 286.865C67.4252 286.656 67.0482 286.365 66.7681 285.993C66.4911 285.617 66.3403 285.182 66.3157 284.686H67.479C67.5037 284.991 67.6083 285.254 67.793 285.476C67.9776 285.694 68.2192 285.864 68.5178 285.984C68.8163 286.104 69.1471 286.164 69.5103 286.164C69.9165 286.164 70.2766 286.093 70.5906 285.951C70.9045 285.81 71.1507 285.613 71.3292 285.36C71.5077 285.108 71.5969 284.816 71.5969 284.483C71.5969 284.135 71.5108 283.829 71.3384 283.565C71.1661 283.297 70.9137 283.088 70.5813 282.937C70.2489 282.786 69.8427 282.71 69.3626 282.71H68.6055V281.695H69.3626C69.738 281.695 70.0674 281.627 70.3505 281.492C70.6367 281.356 70.8598 281.166 71.0199 280.919C71.183 280.673 71.2646 280.384 71.2646 280.051C71.2646 279.731 71.1938 279.453 71.0522 279.216C70.9106 278.979 70.7106 278.794 70.4521 278.662C70.1966 278.53 69.895 278.463 69.5472 278.463C69.221 278.463 68.9132 278.523 68.6239 278.643C68.3377 278.76 68.1038 278.931 67.9222 279.156C67.7406 279.377 67.6422 279.645 67.6268 279.959H66.5188C66.5373 279.464 66.6866 279.03 66.9666 278.657C67.2467 278.282 67.6129 277.989 68.0653 277.78C68.5208 277.571 69.021 277.466 69.5657 277.466C70.1505 277.466 70.6521 277.585 71.0707 277.822C71.4892 278.056 71.8108 278.365 72.0355 278.75C72.2602 279.134 72.3725 279.55 72.3725 279.996C72.3725 280.528 72.2325 280.982 71.9524 281.358C71.6754 281.733 71.2984 281.993 70.8214 282.138V282.212C71.4184 282.31 71.8847 282.564 72.2202 282.974C72.5556 283.38 72.7234 283.883 72.7234 284.483C72.7234 284.997 72.5833 285.459 72.3033 285.868C72.0263 286.274 71.6477 286.594 71.1676 286.828C70.6875 287.062 70.1412 287.179 69.5288 287.179ZM77.6399 287.179C77.0059 287.179 76.4458 287.067 75.9595 286.842C75.4763 286.615 75.0993 286.302 74.8285 285.905C74.5576 285.505 74.4238 285.05 74.4268 284.539C74.4238 284.139 74.5022 283.769 74.6623 283.431C74.8223 283.089 75.0408 282.804 75.3178 282.577C75.5979 282.346 75.9103 282.2 76.255 282.138V282.083C75.8026 281.966 75.4425 281.712 75.1747 281.321C74.907 280.927 74.7746 280.479 74.7777 279.978C74.7746 279.497 74.8962 279.068 75.1424 278.69C75.3886 278.311 75.7272 278.012 76.158 277.794C76.592 277.575 77.0859 277.466 77.6399 277.466C78.1877 277.466 78.6771 277.575 79.108 277.794C79.5388 278.012 79.8774 278.311 80.1236 278.69C80.3729 279.068 80.4991 279.497 80.5021 279.978C80.4991 280.479 80.3621 280.927 80.0913 281.321C79.8235 281.712 79.468 281.966 79.0249 282.083V282.138C79.3665 282.2 79.6742 282.346 79.9482 282.577C80.2221 282.804 80.4406 283.089 80.6037 283.431C80.7668 283.769 80.8499 284.139 80.853 284.539C80.8499 285.05 80.7114 285.505 80.4375 285.905C80.1667 286.302 79.7897 286.615 79.3065 286.842C78.8263 287.067 78.2708 287.179 77.6399 287.179ZM77.6399 286.164C78.0677 286.164 78.437 286.094 78.7479 285.956C79.0587 285.817 79.2988 285.622 79.468 285.37C79.6373 285.117 79.7235 284.822 79.7266 284.483C79.7235 284.126 79.6312 283.811 79.4496 283.537C79.268 283.263 79.0202 283.048 78.7063 282.891C78.3955 282.734 78.04 282.655 77.6399 282.655C77.2367 282.655 76.8767 282.734 76.5597 282.891C76.2457 283.048 75.998 283.263 75.8164 283.537C75.6379 283.811 75.5502 284.126 75.5533 284.483C75.5502 284.822 75.6317 285.117 75.7979 285.37C75.9672 285.622 76.2088 285.817 76.5227 285.956C76.8366 286.094 77.209 286.164 77.6399 286.164ZM77.6399 281.676C77.9785 281.676 78.2785 281.609 78.5401 281.473C78.8048 281.338 79.0125 281.149 79.1634 280.905C79.3142 280.662 79.3911 280.378 79.3942 280.051C79.3911 279.731 79.3157 279.453 79.168 279.216C79.0202 278.976 78.8156 278.791 78.554 278.662C78.2924 278.53 77.9877 278.463 77.6399 278.463C77.286 278.463 76.9767 278.53 76.712 278.662C76.4473 278.791 76.2427 278.976 76.098 279.216C75.9534 279.453 75.8826 279.731 75.8857 280.051C75.8826 280.378 75.9549 280.662 76.1026 280.905C76.2534 281.149 76.4612 281.338 76.7259 281.473C76.9905 281.609 77.2952 281.676 77.6399 281.676ZM85.7615 287.179C85.3737 287.173 84.9859 287.099 84.5981 286.958C84.2103 286.816 83.8564 286.578 83.5363 286.242C83.2162 285.904 82.9593 285.447 82.7654 284.871C82.5715 284.292 82.4745 283.566 82.4745 282.692C82.4745 281.855 82.553 281.113 82.71 280.467C82.8669 279.818 83.0947 279.271 83.3932 278.828C83.6917 278.382 84.0518 278.043 84.4735 277.812C84.8982 277.582 85.3767 277.466 85.9092 277.466C86.4385 277.466 86.9094 277.572 87.3218 277.785C87.7373 277.994 88.0758 278.286 88.3374 278.662C88.599 279.037 88.7683 279.47 88.8453 279.959H87.7188C87.6142 279.534 87.4111 279.182 87.1095 278.902C86.8079 278.622 86.4078 278.482 85.9092 278.482C85.1767 278.482 84.5996 278.8 84.178 279.437C83.7594 280.074 83.5486 280.969 83.5455 282.12H83.6194C83.7918 281.858 83.9964 281.635 84.2334 281.45C84.4735 281.262 84.7381 281.118 85.0274 281.016C85.3167 280.915 85.623 280.864 85.9461 280.864C86.4878 280.864 86.9833 280.999 87.4326 281.27C87.882 281.538 88.242 281.909 88.5129 282.383C88.7837 282.854 88.9191 283.394 88.9191 284.003C88.9191 284.588 88.7883 285.123 88.5267 285.61C88.2651 286.093 87.8973 286.478 87.4234 286.764C86.9525 287.047 86.3985 287.185 85.7615 287.179ZM85.7615 286.164C86.1492 286.164 86.497 286.067 86.8048 285.873C87.1156 285.679 87.3603 285.419 87.5388 285.093C87.7204 284.766 87.8112 284.403 87.8112 284.003C87.8112 283.612 87.7235 283.257 87.548 282.937C87.3757 282.614 87.1372 282.357 86.8325 282.166C86.5309 281.975 86.1862 281.88 85.7984 281.88C85.506 281.88 85.2336 281.938 84.9813 282.055C84.7289 282.169 84.5073 282.326 84.3165 282.526C84.1288 282.726 83.981 282.955 83.8733 283.214C83.7656 283.469 83.7117 283.738 83.7117 284.022C83.7117 284.397 83.7994 284.748 83.9749 285.074C84.1534 285.4 84.3965 285.664 84.7043 285.864C85.0151 286.064 85.3675 286.164 85.7615 286.164ZM91.9337 285.757L91.8598 286.256C91.8075 286.607 91.7275 286.982 91.6198 287.382C91.5151 287.782 91.4059 288.159 91.292 288.513C91.1781 288.867 91.0843 289.149 91.0104 289.358H90.1794C90.2194 289.161 90.2718 288.901 90.3364 288.578C90.401 288.255 90.4656 287.893 90.5303 287.493C90.598 287.096 90.6534 286.69 90.6965 286.274L90.7519 285.757H91.9337ZM96.6875 287.179C95.992 287.179 95.3995 286.99 94.9102 286.611C94.4208 286.23 94.0469 285.677 93.7884 284.954C93.5298 284.228 93.4006 283.351 93.4006 282.323C93.4006 281.301 93.5298 280.428 93.7884 279.705C94.05 278.979 94.4254 278.425 94.9148 278.043C95.4072 277.659 95.9981 277.466 96.6875 277.466C97.3769 277.466 97.9663 277.659 98.4556 278.043C98.948 278.425 99.3235 278.979 99.582 279.705C99.8436 280.428 99.9744 281.301 99.9744 282.323C99.9744 283.351 99.8452 284.228 99.5866 284.954C99.3281 285.677 98.9542 286.23 98.4648 286.611C97.9755 286.99 97.383 287.179 96.6875 287.179ZM96.6875 286.164C97.3769 286.164 97.9124 285.831 98.294 285.166C98.6757 284.502 98.8665 283.554 98.8665 282.323C98.8665 281.504 98.7788 280.807 98.6033 280.231C98.431 279.656 98.1817 279.217 97.8555 278.916C97.5323 278.614 97.143 278.463 96.6875 278.463C96.0043 278.463 95.4703 278.8 95.0856 279.474C94.7009 280.145 94.5085 281.095 94.5085 282.323C94.5085 283.141 94.5947 283.837 94.767 284.409C94.9394 284.982 95.1871 285.417 95.5103 285.716C95.8365 286.014 96.2289 286.164 96.6875 286.164ZM104.812 287.179C104.117 287.179 103.525 286.99 103.035 286.611C102.546 286.23 102.172 285.677 101.913 284.954C101.655 284.228 101.526 283.351 101.526 282.323C101.526 281.301 101.655 280.428 101.913 279.705C102.175 278.979 102.55 278.425 103.04 278.043C103.532 277.659 104.123 277.466 104.812 277.466C105.502 277.466 106.091 277.659 106.581 278.043C107.073 278.425 107.449 278.979 107.707 279.705C107.969 280.428 108.099 281.301 108.099 282.323C108.099 283.351 107.97 284.228 107.712 284.954C107.453 285.677 107.079 286.23 106.59 286.611C106.1 286.99 105.508 287.179 104.812 287.179ZM104.812 286.164C105.502 286.164 106.037 285.831 106.419 285.166C106.801 284.502 106.991 283.554 106.991 282.323C106.991 281.504 106.904 280.807 106.728 280.231C106.556 279.656 106.307 279.217 105.98 278.916C105.657 278.614 105.268 278.463 104.812 278.463C104.129 278.463 103.595 278.8 103.211 279.474C102.826 280.145 102.634 281.095 102.634 282.323C102.634 283.141 102.72 283.837 102.892 284.409C103.064 284.982 103.312 285.417 103.635 285.716C103.962 286.014 104.354 286.164 104.812 286.164ZM112.938 287.179C112.242 287.179 111.65 286.99 111.16 286.611C110.671 286.23 110.297 285.677 110.038 284.954C109.78 284.228 109.651 283.351 109.651 282.323C109.651 281.301 109.78 280.428 110.038 279.705C110.3 278.979 110.675 278.425 111.165 278.043C111.657 277.659 112.248 277.466 112.938 277.466C113.627 277.466 114.216 277.659 114.706 278.043C115.198 278.425 115.574 278.979 115.832 279.705C116.094 280.428 116.224 281.301 116.224 282.323C116.224 283.351 116.095 284.228 115.837 284.954C115.578 285.677 115.204 286.23 114.715 286.611C114.225 286.99 113.633 287.179 112.938 287.179ZM112.938 286.164C113.627 286.164 114.162 285.831 114.544 285.166C114.926 284.502 115.116 283.554 115.116 282.323C115.116 281.504 115.029 280.807 114.853 280.231C114.681 279.656 114.432 279.217 114.105 278.916C113.782 278.614 113.393 278.463 112.938 278.463C112.254 278.463 111.72 278.8 111.336 279.474C110.951 280.145 110.759 281.095 110.759 282.323C110.759 283.141 110.845 283.837 111.017 284.409C111.189 284.982 111.437 285.417 111.76 285.716C112.087 286.014 112.479 286.164 112.938 286.164Z" fill="#FFFCFC"/>
<path d="M69.478 246.179C68.8686 246.179 68.3254 246.075 67.8484 245.865C67.3744 245.656 66.9974 245.365 66.7173 244.993C66.4403 244.617 66.2895 244.182 66.2649 243.686H67.4283C67.4529 243.991 67.5575 244.254 67.7422 244.476C67.9268 244.694 68.1684 244.864 68.467 244.984C68.7655 245.104 69.0964 245.164 69.4595 245.164C69.8658 245.164 70.2259 245.093 70.5398 244.951C70.8537 244.81 71.0999 244.613 71.2784 244.36C71.4569 244.108 71.5462 243.816 71.5462 243.483C71.5462 243.135 71.46 242.829 71.2876 242.565C71.1153 242.297 70.8629 242.088 70.5305 241.937C70.1982 241.786 69.7919 241.71 69.3118 241.71H68.5547V240.695H69.3118C69.6873 240.695 70.0166 240.627 70.2997 240.492C70.5859 240.356 70.8091 240.166 70.9691 239.919C71.1322 239.673 71.2138 239.384 71.2138 239.051C71.2138 238.731 71.143 238.453 71.0014 238.216C70.8598 237.979 70.6598 237.794 70.4013 237.662C70.1458 237.53 69.8442 237.463 69.4964 237.463C69.1702 237.463 68.8625 237.523 68.5732 237.643C68.2869 237.76 68.053 237.931 67.8714 238.156C67.6899 238.377 67.5914 238.645 67.576 238.959H66.468C66.4865 238.464 66.6358 238.03 66.9158 237.657C67.1959 237.282 67.5621 236.989 68.0146 236.78C68.4701 236.571 68.9702 236.466 69.5149 236.466C70.0997 236.466 70.6013 236.585 71.0199 236.822C71.4384 237.056 71.7601 237.365 71.9847 237.75C72.2094 238.134 72.3217 238.55 72.3217 238.996C72.3217 239.528 72.1817 239.982 71.9016 240.358C71.6246 240.733 71.2476 240.993 70.7706 241.138V241.212C71.3677 241.31 71.8339 241.564 72.1694 241.974C72.5049 242.38 72.6726 242.883 72.6726 243.483C72.6726 243.997 72.5326 244.459 72.2525 244.868C71.9755 245.274 71.5969 245.594 71.1168 245.828C70.6367 246.062 70.0904 246.179 69.478 246.179ZM77.5891 246.179C76.9551 246.179 76.395 246.067 75.9087 245.842C75.4255 245.615 75.0485 245.302 74.7777 244.905C74.5069 244.505 74.373 244.05 74.3761 243.539C74.373 243.139 74.4515 242.769 74.6115 242.431C74.7715 242.089 74.9901 241.804 75.267 241.577C75.5471 241.346 75.8595 241.2 76.2042 241.138V241.083C75.7518 240.966 75.3917 240.712 75.1239 240.321C74.8562 239.927 74.7238 239.479 74.7269 238.978C74.7238 238.497 74.8454 238.068 75.0916 237.69C75.3378 237.311 75.6764 237.012 76.1072 236.794C76.5412 236.575 77.0352 236.466 77.5891 236.466C78.137 236.466 78.6263 236.575 79.0572 236.794C79.488 237.012 79.8266 237.311 80.0728 237.69C80.3221 238.068 80.4483 238.497 80.4513 238.978C80.4483 239.479 80.3113 239.927 80.0405 240.321C79.7727 240.712 79.4173 240.966 78.9741 241.083V241.138C79.3157 241.2 79.6235 241.346 79.8974 241.577C80.1713 241.804 80.3898 242.089 80.5529 242.431C80.716 242.769 80.7991 243.139 80.8022 243.539C80.7991 244.05 80.6606 244.505 80.3867 244.905C80.1159 245.302 79.7389 245.615 79.2557 245.842C78.7756 246.067 78.2201 246.179 77.5891 246.179ZM77.5891 245.164C78.0169 245.164 78.3862 245.094 78.6971 244.956C79.0079 244.817 79.248 244.622 79.4173 244.37C79.5865 244.117 79.6727 243.822 79.6758 243.483C79.6727 243.126 79.5804 242.811 79.3988 242.537C79.2172 242.263 78.9695 242.048 78.6555 241.891C78.3447 241.734 77.9892 241.655 77.5891 241.655C77.186 241.655 76.8259 241.734 76.5089 241.891C76.195 242.048 75.9472 242.263 75.7656 242.537C75.5871 242.811 75.4994 243.126 75.5025 243.483C75.4994 243.822 75.581 244.117 75.7472 244.37C75.9164 244.622 76.158 244.817 76.4719 244.956C76.7859 245.094 77.1583 245.164 77.5891 245.164ZM77.5891 240.676C77.9277 240.676 78.2277 240.609 78.4893 240.473C78.754 240.338 78.9618 240.149 79.1126 239.905C79.2634 239.662 79.3403 239.378 79.3434 239.051C79.3403 238.731 79.2649 238.453 79.1172 238.216C78.9695 237.976 78.7648 237.791 78.5032 237.662C78.2416 237.53 77.9369 237.463 77.5891 237.463C77.2352 237.463 76.9259 237.53 76.6612 237.662C76.3965 237.791 76.1919 237.976 76.0472 238.216C75.9026 238.453 75.8318 238.731 75.8349 239.051C75.8318 239.378 75.9041 239.662 76.0518 239.905C76.2027 240.149 76.4104 240.338 76.6751 240.473C76.9397 240.609 77.2444 240.676 77.5891 240.676ZM85.5999 246.179C84.9659 246.179 84.4057 246.067 83.9195 245.842C83.4363 245.615 83.0593 245.302 82.7884 244.905C82.5176 244.505 82.3837 244.05 82.3868 243.539C82.3837 243.139 82.4622 242.769 82.6222 242.431C82.7823 242.089 83.0008 241.804 83.2778 241.577C83.5579 241.346 83.8702 241.2 84.2149 241.138V241.083C83.7625 240.966 83.4024 240.712 83.1347 240.321C82.8669 239.927 82.7346 239.479 82.7377 238.978C82.7346 238.497 82.8561 238.068 83.1024 237.69C83.3486 237.311 83.6871 237.012 84.118 236.794C84.5519 236.575 85.0459 236.466 85.5999 236.466C86.1477 236.466 86.637 236.575 87.0679 236.794C87.4988 237.012 87.8373 237.311 88.0835 237.69C88.3328 238.068 88.459 238.497 88.4621 238.978C88.459 239.479 88.3221 239.927 88.0512 240.321C87.7835 240.712 87.428 240.966 86.9848 241.083V241.138C87.3264 241.2 87.6342 241.346 87.9081 241.577C88.182 241.804 88.4005 242.089 88.5637 242.431C88.7268 242.769 88.8099 243.139 88.8129 243.539C88.8099 244.05 88.6714 244.505 88.3975 244.905C88.1266 245.302 87.7496 245.615 87.2664 245.842C86.7863 246.067 86.2308 246.179 85.5999 246.179ZM85.5999 245.164C86.0277 245.164 86.397 245.094 86.7078 244.956C87.0187 244.817 87.2587 244.622 87.428 244.37C87.5973 244.117 87.6834 243.822 87.6865 243.483C87.6834 243.126 87.5911 242.811 87.4095 242.537C87.228 242.263 86.9802 242.048 86.6663 241.891C86.3554 241.734 86 241.655 85.5999 241.655C85.1967 241.655 84.8366 241.734 84.5196 241.891C84.2057 242.048 83.9579 242.263 83.7764 242.537C83.5979 242.811 83.5102 243.126 83.5132 243.483C83.5102 243.822 83.5917 244.117 83.7579 244.37C83.9272 244.622 84.1688 244.817 84.4827 244.956C84.7966 245.094 85.169 245.164 85.5999 245.164ZM85.5999 240.676C85.9384 240.676 86.2385 240.609 86.5001 240.473C86.7648 240.338 86.9725 240.149 87.1233 239.905C87.2741 239.662 87.3511 239.378 87.3541 239.051C87.3511 238.731 87.2757 238.453 87.1279 238.216C86.9802 237.976 86.7755 237.791 86.5139 237.662C86.2523 237.53 85.9477 237.463 85.5999 237.463C85.2459 237.463 84.9366 237.53 84.672 237.662C84.4073 237.791 84.2026 237.976 84.058 238.216C83.9133 238.453 83.8425 238.731 83.8456 239.051C83.8425 239.378 83.9149 239.662 84.0626 239.905C84.2134 240.149 84.4211 240.338 84.6858 240.473C84.9505 240.609 85.2552 240.676 85.5999 240.676ZM91.9337 244.757L91.8598 245.256C91.8075 245.607 91.7275 245.982 91.6198 246.382C91.5151 246.782 91.4059 247.159 91.292 247.513C91.1781 247.867 91.0843 248.149 91.0104 248.358H90.1794C90.2194 248.161 90.2718 247.901 90.3364 247.578C90.401 247.255 90.4656 246.893 90.5303 246.493C90.598 246.096 90.6534 245.69 90.6965 245.274L90.7519 244.757H91.9337ZM96.6875 246.179C95.992 246.179 95.3995 245.99 94.9102 245.611C94.4208 245.23 94.0469 244.677 93.7884 243.954C93.5298 243.228 93.4006 242.351 93.4006 241.323C93.4006 240.301 93.5298 239.428 93.7884 238.705C94.05 237.979 94.4254 237.425 94.9148 237.043C95.4072 236.659 95.9981 236.466 96.6875 236.466C97.3769 236.466 97.9663 236.659 98.4556 237.043C98.948 237.425 99.3235 237.979 99.582 238.705C99.8436 239.428 99.9744 240.301 99.9744 241.323C99.9744 242.351 99.8452 243.228 99.5866 243.954C99.3281 244.677 98.9542 245.23 98.4648 245.611C97.9755 245.99 97.383 246.179 96.6875 246.179ZM96.6875 245.164C97.3769 245.164 97.9124 244.831 98.294 244.166C98.6757 243.502 98.8665 242.554 98.8665 241.323C98.8665 240.504 98.7788 239.807 98.6033 239.231C98.431 238.656 98.1817 238.217 97.8555 237.916C97.5323 237.614 97.143 237.463 96.6875 237.463C96.0043 237.463 95.4703 237.8 95.0856 238.474C94.7009 239.145 94.5085 240.095 94.5085 241.323C94.5085 242.141 94.5947 242.837 94.767 243.409C94.9394 243.982 95.1871 244.417 95.5103 244.716C95.8365 245.014 96.2289 245.164 96.6875 245.164ZM104.812 246.179C104.117 246.179 103.525 245.99 103.035 245.611C102.546 245.23 102.172 244.677 101.913 243.954C101.655 243.228 101.526 242.351 101.526 241.323C101.526 240.301 101.655 239.428 101.913 238.705C102.175 237.979 102.55 237.425 103.04 237.043C103.532 236.659 104.123 236.466 104.812 236.466C105.502 236.466 106.091 236.659 106.581 237.043C107.073 237.425 107.449 237.979 107.707 238.705C107.969 239.428 108.099 240.301 108.099 241.323C108.099 242.351 107.97 243.228 107.712 243.954C107.453 244.677 107.079 245.23 106.59 245.611C106.1 245.99 105.508 246.179 104.812 246.179ZM104.812 245.164C105.502 245.164 106.037 244.831 106.419 244.166C106.801 243.502 106.991 242.554 106.991 241.323C106.991 240.504 106.904 239.807 106.728 239.231C106.556 238.656 106.307 238.217 105.98 237.916C105.657 237.614 105.268 237.463 104.812 237.463C104.129 237.463 103.595 237.8 103.211 238.474C102.826 239.145 102.634 240.095 102.634 241.323C102.634 242.141 102.72 242.837 102.892 243.409C103.064 243.982 103.312 244.417 103.635 244.716C103.962 245.014 104.354 245.164 104.812 245.164ZM112.938 246.179C112.242 246.179 111.65 245.99 111.16 245.611C110.671 245.23 110.297 244.677 110.038 243.954C109.78 243.228 109.651 242.351 109.651 241.323C109.651 240.301 109.78 239.428 110.038 238.705C110.3 237.979 110.675 237.425 111.165 237.043C111.657 236.659 112.248 236.466 112.938 236.466C113.627 236.466 114.216 236.659 114.706 237.043C115.198 237.425 115.574 237.979 115.832 238.705C116.094 239.428 116.224 240.301 116.224 241.323C116.224 242.351 116.095 243.228 115.837 243.954C115.578 244.677 115.204 245.23 114.715 245.611C114.225 245.99 113.633 246.179 112.938 246.179ZM112.938 245.164C113.627 245.164 114.162 244.831 114.544 244.166C114.926 243.502 115.116 242.554 115.116 241.323C115.116 240.504 115.029 239.807 114.853 239.231C114.681 238.656 114.432 238.217 114.105 237.916C113.782 237.614 113.393 237.463 112.938 237.463C112.254 237.463 111.72 237.8 111.336 238.474C110.951 239.145 110.759 240.095 110.759 241.323C110.759 242.141 110.845 242.837 111.017 243.409C111.189 243.982 111.437 244.417 111.76 244.716C112.087 245.014 112.479 245.164 112.938 245.164Z" fill="#FFFCFC"/>
<path d="M69.3002 205.179C68.6909 205.179 68.1477 205.075 67.6706 204.865C67.1967 204.656 66.8197 204.365 66.5396 203.993C66.2626 203.617 66.1118 203.182 66.0872 202.686H67.2505C67.2752 202.991 67.3798 203.254 67.5645 203.476C67.7491 203.694 67.9907 203.864 68.2892 203.984C68.5878 204.104 68.9186 204.164 69.2818 204.164C69.688 204.164 70.0481 204.093 70.362 203.951C70.676 203.81 70.9222 203.613 71.1007 203.36C71.2792 203.108 71.3684 202.816 71.3684 202.483C71.3684 202.135 71.2823 201.829 71.1099 201.565C70.9376 201.297 70.6852 201.088 70.3528 200.937C70.0204 200.786 69.6142 200.71 69.1341 200.71H68.377V199.695H69.1341C69.5095 199.695 69.8388 199.627 70.122 199.492C70.4082 199.356 70.6313 199.166 70.7914 198.919C70.9545 198.673 71.036 198.384 71.036 198.051C71.036 197.731 70.9653 197.453 70.8237 197.216C70.6821 196.979 70.4821 196.794 70.2235 196.662C69.9681 196.53 69.6665 196.463 69.3187 196.463C68.9925 196.463 68.6847 196.523 68.3954 196.643C68.1092 196.76 67.8753 196.931 67.6937 197.156C67.5121 197.377 67.4136 197.645 67.3983 197.959H66.2903C66.3088 197.464 66.458 197.03 66.7381 196.657C67.0182 196.282 67.3844 195.989 67.8368 195.78C68.2923 195.571 68.7924 195.466 69.3372 195.466C69.9219 195.466 70.4236 195.585 70.8422 195.822C71.2607 196.056 71.5823 196.365 71.807 196.75C72.0317 197.134 72.144 197.55 72.144 197.996C72.144 198.528 72.004 198.982 71.7239 199.358C71.4469 199.733 71.0699 199.993 70.5929 200.138V200.212C71.1899 200.31 71.6562 200.564 71.9917 200.974C72.3271 201.38 72.4949 201.883 72.4949 202.483C72.4949 202.997 72.3548 203.459 72.0748 203.868C71.7978 204.274 71.4192 204.594 70.9391 204.828C70.459 205.062 69.9127 205.179 69.3002 205.179ZM77.3929 195.466C77.7807 195.469 78.1685 195.543 78.5563 195.688C78.9441 195.832 79.298 196.072 79.6181 196.408C79.9382 196.74 80.1951 197.194 80.389 197.77C80.5829 198.345 80.6799 199.067 80.6799 199.935C80.6799 200.775 80.5998 201.521 80.4398 202.174C80.2828 202.823 80.0551 203.371 79.7566 203.817C79.4611 204.264 79.101 204.602 78.6763 204.833C78.2547 205.064 77.7776 205.179 77.2452 205.179C76.7158 205.179 76.2434 205.075 75.8279 204.865C75.4155 204.653 75.077 204.359 74.8123 203.984C74.5507 203.605 74.383 203.166 74.3091 202.668H75.4355C75.5371 203.102 75.7387 203.46 76.0403 203.744C76.345 204.024 76.7466 204.164 77.2452 204.164C77.9746 204.164 78.5501 203.845 78.9718 203.208C79.3965 202.571 79.6088 201.671 79.6088 200.507H79.535C79.3626 200.766 79.158 200.989 78.921 201.177C78.684 201.365 78.4209 201.509 78.1316 201.611C77.8423 201.712 77.5345 201.763 77.2083 201.763C76.6666 201.763 76.1696 201.629 75.7172 201.361C75.2678 201.091 74.9077 200.72 74.6369 200.249C74.3691 199.775 74.2353 199.233 74.2353 198.624C74.2353 198.045 74.3645 197.516 74.623 197.036C74.8846 196.553 75.2509 196.168 75.7218 195.882C76.1957 195.595 76.7528 195.457 77.3929 195.466ZM77.3929 196.482C77.0051 196.482 76.6558 196.579 76.345 196.773C76.0372 196.963 75.7926 197.222 75.611 197.548C75.4325 197.871 75.3432 198.23 75.3432 198.624C75.3432 199.018 75.4294 199.376 75.6017 199.699C75.7772 200.02 76.0157 200.275 76.3173 200.466C76.622 200.654 76.9682 200.747 77.356 200.747C77.6484 200.747 77.9208 200.69 78.1731 200.577C78.4255 200.46 78.6455 200.301 78.8333 200.101C79.0241 199.898 79.1734 199.669 79.2811 199.413C79.3888 199.155 79.4426 198.885 79.4426 198.605C79.4426 198.236 79.3534 197.89 79.1749 197.567C78.9995 197.244 78.7563 196.982 78.4455 196.782C78.1377 196.582 77.7869 196.482 77.3929 196.482ZM85.5791 205.179C84.8836 205.179 84.2911 204.99 83.8018 204.611C83.3124 204.23 82.9385 203.677 82.68 202.954C82.4214 202.228 82.2922 201.351 82.2922 200.323C82.2922 199.301 82.4214 198.428 82.68 197.705C82.9416 196.979 83.317 196.425 83.8064 196.043C84.2988 195.659 84.8897 195.466 85.5791 195.466C86.2685 195.466 86.8579 195.659 87.3472 196.043C87.8396 196.425 88.2151 196.979 88.4736 197.705C88.7352 198.428 88.866 199.301 88.866 200.323C88.866 201.351 88.7368 202.228 88.4782 202.954C88.2197 203.677 87.8458 204.23 87.3564 204.611C86.8671 204.99 86.2747 205.179 85.5791 205.179ZM85.5791 204.164C86.2685 204.164 86.804 203.831 87.1856 203.166C87.5673 202.502 87.7581 201.554 87.7581 200.323C87.7581 199.504 87.6704 198.807 87.4949 198.231C87.3226 197.656 87.0733 197.217 86.7471 196.916C86.4239 196.614 86.0346 196.463 85.5791 196.463C84.8959 196.463 84.3619 196.8 83.9772 197.474C83.5925 198.145 83.4001 199.095 83.4001 200.323C83.4001 201.141 83.4863 201.837 83.6586 202.409C83.831 202.982 84.0787 203.417 84.4019 203.716C84.7281 204.014 85.1205 204.164 85.5791 204.164ZM91.9337 203.757L91.8598 204.256C91.8075 204.607 91.7275 204.982 91.6198 205.382C91.5151 205.782 91.4059 206.159 91.292 206.513C91.1781 206.867 91.0843 207.149 91.0104 207.358H90.1794C90.2194 207.161 90.2718 206.901 90.3364 206.578C90.401 206.255 90.4656 205.893 90.5303 205.493C90.598 205.096 90.6534 204.69 90.6965 204.274L90.7519 203.757H91.9337ZM96.6875 205.179C95.992 205.179 95.3995 204.99 94.9102 204.611C94.4208 204.23 94.0469 203.677 93.7884 202.954C93.5298 202.228 93.4006 201.351 93.4006 200.323C93.4006 199.301 93.5298 198.428 93.7884 197.705C94.05 196.979 94.4254 196.425 94.9148 196.043C95.4072 195.659 95.9981 195.466 96.6875 195.466C97.3769 195.466 97.9663 195.659 98.4556 196.043C98.948 196.425 99.3235 196.979 99.582 197.705C99.8436 198.428 99.9744 199.301 99.9744 200.323C99.9744 201.351 99.8452 202.228 99.5866 202.954C99.3281 203.677 98.9542 204.23 98.4648 204.611C97.9755 204.99 97.383 205.179 96.6875 205.179ZM96.6875 204.164C97.3769 204.164 97.9124 203.831 98.294 203.166C98.6757 202.502 98.8665 201.554 98.8665 200.323C98.8665 199.504 98.7788 198.807 98.6033 198.231C98.431 197.656 98.1817 197.217 97.8555 196.916C97.5323 196.614 97.143 196.463 96.6875 196.463C96.0043 196.463 95.4703 196.8 95.0856 197.474C94.7009 198.145 94.5085 199.095 94.5085 200.323C94.5085 201.141 94.5947 201.837 94.767 202.409C94.9394 202.982 95.1871 203.417 95.5103 203.716C95.8365 204.014 96.2289 204.164 96.6875 204.164ZM104.812 205.179C104.117 205.179 103.525 204.99 103.035 204.611C102.546 204.23 102.172 203.677 101.913 202.954C101.655 202.228 101.526 201.351 101.526 200.323C101.526 199.301 101.655 198.428 101.913 197.705C102.175 196.979 102.55 196.425 103.04 196.043C103.532 195.659 104.123 195.466 104.812 195.466C105.502 195.466 106.091 195.659 106.581 196.043C107.073 196.425 107.449 196.979 107.707 197.705C107.969 198.428 108.099 199.301 108.099 200.323C108.099 201.351 107.97 202.228 107.712 202.954C107.453 203.677 107.079 204.23 106.59 204.611C106.1 204.99 105.508 205.179 104.812 205.179ZM104.812 204.164C105.502 204.164 106.037 203.831 106.419 203.166C106.801 202.502 106.991 201.554 106.991 200.323C106.991 199.504 106.904 198.807 106.728 198.231C106.556 197.656 106.307 197.217 105.98 196.916C105.657 196.614 105.268 196.463 104.812 196.463C104.129 196.463 103.595 196.8 103.211 197.474C102.826 198.145 102.634 199.095 102.634 200.323C102.634 201.141 102.72 201.837 102.892 202.409C103.064 202.982 103.312 203.417 103.635 203.716C103.962 204.014 104.354 204.164 104.812 204.164ZM112.938 205.179C112.242 205.179 111.65 204.99 111.16 204.611C110.671 204.23 110.297 203.677 110.038 202.954C109.78 202.228 109.651 201.351 109.651 200.323C109.651 199.301 109.78 198.428 110.038 197.705C110.3 196.979 110.675 196.425 111.165 196.043C111.657 195.659 112.248 195.466 112.938 195.466C113.627 195.466 114.216 195.659 114.706 196.043C115.198 196.425 115.574 196.979 115.832 197.705C116.094 198.428 116.224 199.301 116.224 200.323C116.224 201.351 116.095 202.228 115.837 202.954C115.578 203.677 115.204 204.23 114.715 204.611C114.225 204.99 113.633 205.179 112.938 205.179ZM112.938 204.164C113.627 204.164 114.162 203.831 114.544 203.166C114.926 202.502 115.116 201.554 115.116 200.323C115.116 199.504 115.029 198.807 114.853 198.231C114.681 197.656 114.432 197.217 114.105 196.916C113.782 196.614 113.393 196.463 112.938 196.463C112.254 196.463 111.72 196.8 111.336 197.474C110.951 198.145 110.759 199.095 110.759 200.323C110.759 201.141 110.845 201.837 111.017 202.409C111.189 202.982 111.437 203.417 111.76 203.716C112.087 204.014 112.479 204.164 112.938 204.164Z" fill="#FFFCFC"/>
<path d="M69.2241 164.179C68.6147 164.179 68.0715 164.075 67.5945 163.865C67.1205 163.656 66.7435 163.365 66.4634 162.993C66.1864 162.617 66.0356 162.182 66.011 161.686H67.1744C67.199 161.991 67.3036 162.254 67.4883 162.476C67.6729 162.694 67.9145 162.864 68.2131 162.984C68.5116 163.104 68.8424 163.164 69.2056 163.164C69.6119 163.164 69.9719 163.093 70.2859 162.951C70.5998 162.81 70.846 162.613 71.0245 162.36C71.203 162.108 71.2923 161.816 71.2923 161.483C71.2923 161.135 71.2061 160.829 71.0337 160.565C70.8614 160.297 70.609 160.088 70.2766 159.937C69.9442 159.786 69.538 159.71 69.0579 159.71H68.3008V158.695H69.0579C69.4334 158.695 69.7627 158.627 70.0458 158.492C70.332 158.356 70.5552 158.166 70.7152 157.919C70.8783 157.673 70.9599 157.384 70.9599 157.051C70.9599 156.731 70.8891 156.453 70.7475 156.216C70.6059 155.979 70.4059 155.794 70.1474 155.662C69.8919 155.53 69.5903 155.463 69.2425 155.463C68.9163 155.463 68.6085 155.523 68.3192 155.643C68.033 155.76 67.7991 155.931 67.6175 156.156C67.436 156.377 67.3375 156.645 67.3221 156.959H66.2141C66.2326 156.464 66.3819 156.03 66.6619 155.657C66.942 155.282 67.3082 154.989 67.7607 154.78C68.2161 154.571 68.7163 154.466 69.261 154.466C69.8458 154.466 70.3474 154.585 70.766 154.822C71.1845 155.056 71.5062 155.365 71.7308 155.75C71.9555 156.134 72.0678 156.55 72.0678 156.996C72.0678 157.528 71.9278 157.982 71.6477 158.358C71.3707 158.733 70.9937 158.993 70.5167 159.138V159.212C71.1138 159.31 71.58 159.564 71.9155 159.974C72.2509 160.38 72.4187 160.883 72.4187 161.483C72.4187 161.997 72.2786 162.459 71.9986 162.868C71.7216 163.274 71.343 163.594 70.8629 163.828C70.3828 164.062 69.8365 164.179 69.2241 164.179ZM77.3168 154.466C77.7045 154.469 78.0923 154.543 78.4801 154.688C78.8679 154.832 79.2218 155.072 79.5419 155.408C79.862 155.74 80.119 156.194 80.3129 156.77C80.5067 157.345 80.6037 158.067 80.6037 158.935C80.6037 159.775 80.5237 160.521 80.3636 161.174C80.2067 161.823 79.9789 162.371 79.6804 162.817C79.3849 163.264 79.0249 163.602 78.6001 163.833C78.1785 164.064 77.7015 164.179 77.169 164.179C76.6397 164.179 76.1673 164.075 75.7518 163.865C75.3394 163.653 75.0008 163.359 74.7362 162.984C74.4746 162.605 74.3068 162.166 74.233 161.668H75.3594C75.4609 162.102 75.6625 162.46 75.9641 162.744C76.2688 163.024 76.6705 163.164 77.169 163.164C77.8984 163.164 78.474 162.845 78.8956 162.208C79.3203 161.571 79.5327 160.671 79.5327 159.507H79.4588C79.2865 159.766 79.0818 159.989 78.8448 160.177C78.6078 160.365 78.3447 160.509 78.0554 160.611C77.7661 160.712 77.4583 160.763 77.1321 160.763C76.5904 160.763 76.0934 160.629 75.641 160.361C75.1916 160.091 74.8316 159.72 74.5607 159.249C74.293 158.775 74.1591 158.233 74.1591 157.624C74.1591 157.045 74.2884 156.516 74.5469 156.036C74.8085 155.553 75.1747 155.168 75.6456 154.882C76.1196 154.595 76.6766 154.457 77.3168 154.466ZM77.3168 155.482C76.929 155.482 76.5797 155.579 76.2688 155.773C75.9611 155.963 75.7164 156.222 75.5348 156.548C75.3563 156.871 75.267 157.23 75.267 157.624C75.267 158.018 75.3532 158.376 75.5256 158.699C75.701 159.02 75.9395 159.275 76.2411 159.466C76.5458 159.654 76.892 159.747 77.2798 159.747C77.5722 159.747 77.8446 159.69 78.0969 159.577C78.3493 159.46 78.5694 159.301 78.7571 159.101C78.9479 158.898 79.0972 158.669 79.2049 158.413C79.3126 158.155 79.3665 157.885 79.3665 157.605C79.3665 157.236 79.2772 156.89 79.0987 156.567C78.9233 156.244 78.6802 155.982 78.3693 155.782C78.0616 155.582 77.7107 155.482 77.3168 155.482ZM82.4191 164.05V163.219L85.5399 159.803C85.9061 159.403 86.2077 159.055 86.4447 158.76C86.6817 158.461 86.8571 158.181 86.971 157.919C87.0879 157.655 87.1464 157.378 87.1464 157.088C87.1464 156.756 87.0664 156.468 86.9063 156.225C86.7494 155.982 86.5339 155.794 86.26 155.662C85.9861 155.53 85.6784 155.463 85.3367 155.463C84.9736 155.463 84.6566 155.539 84.3857 155.69C84.118 155.837 83.9102 156.045 83.7625 156.313C83.6179 156.581 83.5455 156.894 83.5455 157.255H82.4561C82.4561 156.701 82.5838 156.214 82.8392 155.796C83.0947 155.377 83.4424 155.051 83.8825 154.817C84.3257 154.583 84.8228 154.466 85.3737 154.466C85.9276 154.466 86.4185 154.583 86.8463 154.817C87.2741 155.051 87.6096 155.366 87.8527 155.763C88.0959 156.16 88.2174 156.602 88.2174 157.088C88.2174 157.436 88.1543 157.776 88.0281 158.109C87.905 158.438 87.6896 158.806 87.3818 159.212C87.0771 159.615 86.654 160.108 86.1123 160.689L83.9887 162.96V163.034H88.3836V164.05H82.4191ZM91.9337 162.757L91.8598 163.256C91.8075 163.607 91.7275 163.982 91.6198 164.382C91.5151 164.782 91.4059 165.159 91.292 165.513C91.1781 165.867 91.0843 166.149 91.0104 166.358H90.1794C90.2194 166.161 90.2718 165.901 90.3364 165.578C90.401 165.255 90.4656 164.893 90.5303 164.493C90.598 164.096 90.6534 163.69 90.6965 163.274L90.7519 162.757H91.9337ZM96.6875 164.179C95.992 164.179 95.3995 163.99 94.9102 163.611C94.4208 163.23 94.0469 162.677 93.7884 161.954C93.5298 161.228 93.4006 160.351 93.4006 159.323C93.4006 158.301 93.5298 157.428 93.7884 156.705C94.05 155.979 94.4254 155.425 94.9148 155.043C95.4072 154.659 95.9981 154.466 96.6875 154.466C97.3769 154.466 97.9663 154.659 98.4556 155.043C98.948 155.425 99.3235 155.979 99.582 156.705C99.8436 157.428 99.9744 158.301 99.9744 159.323C99.9744 160.351 99.8452 161.228 99.5866 161.954C99.3281 162.677 98.9542 163.23 98.4648 163.611C97.9755 163.99 97.383 164.179 96.6875 164.179ZM96.6875 163.164C97.3769 163.164 97.9124 162.831 98.294 162.166C98.6757 161.502 98.8665 160.554 98.8665 159.323C98.8665 158.504 98.7788 157.807 98.6033 157.231C98.431 156.656 98.1817 156.217 97.8555 155.916C97.5323 155.614 97.143 155.463 96.6875 155.463C96.0043 155.463 95.4703 155.8 95.0856 156.474C94.7009 157.145 94.5085 158.095 94.5085 159.323C94.5085 160.141 94.5947 160.837 94.767 161.409C94.9394 161.982 95.1871 162.417 95.5103 162.716C95.8365 163.014 96.2289 163.164 96.6875 163.164ZM104.812 164.179C104.117 164.179 103.525 163.99 103.035 163.611C102.546 163.23 102.172 162.677 101.913 161.954C101.655 161.228 101.526 160.351 101.526 159.323C101.526 158.301 101.655 157.428 101.913 156.705C102.175 155.979 102.55 155.425 103.04 155.043C103.532 154.659 104.123 154.466 104.812 154.466C105.502 154.466 106.091 154.659 106.581 155.043C107.073 155.425 107.449 155.979 107.707 156.705C107.969 157.428 108.099 158.301 108.099 159.323C108.099 160.351 107.97 161.228 107.712 161.954C107.453 162.677 107.079 163.23 106.59 163.611C106.1 163.99 105.508 164.179 104.812 164.179ZM104.812 163.164C105.502 163.164 106.037 162.831 106.419 162.166C106.801 161.502 106.991 160.554 106.991 159.323C106.991 158.504 106.904 157.807 106.728 157.231C106.556 156.656 106.307 156.217 105.98 155.916C105.657 155.614 105.268 155.463 104.812 155.463C104.129 155.463 103.595 155.8 103.211 156.474C102.826 157.145 102.634 158.095 102.634 159.323C102.634 160.141 102.72 160.837 102.892 161.409C103.064 161.982 103.312 162.417 103.635 162.716C103.962 163.014 104.354 163.164 104.812 163.164ZM112.938 164.179C112.242 164.179 111.65 163.99 111.16 163.611C110.671 163.23 110.297 162.677 110.038 161.954C109.78 161.228 109.651 160.351 109.651 159.323C109.651 158.301 109.78 157.428 110.038 156.705C110.3 155.979 110.675 155.425 111.165 155.043C111.657 154.659 112.248 154.466 112.938 154.466C113.627 154.466 114.216 154.659 114.706 155.043C115.198 155.425 115.574 155.979 115.832 156.705C116.094 157.428 116.224 158.301 116.224 159.323C116.224 160.351 116.095 161.228 115.837 161.954C115.578 162.677 115.204 163.23 114.715 163.611C114.225 163.99 113.633 164.179 112.938 164.179ZM112.938 163.164C113.627 163.164 114.162 162.831 114.544 162.166C114.926 161.502 115.116 160.554 115.116 159.323C115.116 158.504 115.029 157.807 114.853 157.231C114.681 156.656 114.432 156.217 114.105 155.916C113.782 155.614 113.393 155.463 112.938 155.463C112.254 155.463 111.72 155.8 111.336 156.474C110.951 157.145 110.759 158.095 110.759 159.323C110.759 160.141 110.845 160.837 111.017 161.409C111.189 161.982 111.437 162.417 111.76 162.716C112.087 163.014 112.479 163.164 112.938 163.164Z" fill="#FFFCFC"/>
<path d="M69.1987 123.179C68.5893 123.179 68.0461 123.075 67.5691 122.865C67.0951 122.656 66.7181 122.365 66.438 121.993C66.161 121.617 66.0102 121.182 65.9856 120.686H67.149C67.1736 120.991 67.2782 121.254 67.4629 121.476C67.6475 121.694 67.8891 121.864 68.1877 121.984C68.4862 122.104 68.8171 122.164 69.1802 122.164C69.5865 122.164 69.9466 122.093 70.2605 121.951C70.5744 121.81 70.8206 121.613 70.9991 121.36C71.1776 121.108 71.2669 120.816 71.2669 120.483C71.2669 120.135 71.1807 119.829 71.0083 119.565C70.836 119.297 70.5836 119.088 70.2512 118.937C69.9189 118.786 69.5126 118.71 69.0325 118.71H68.2754V117.695H69.0325C69.408 117.695 69.7373 117.627 70.0204 117.492C70.3066 117.356 70.5298 117.166 70.6898 116.919C70.8529 116.673 70.9345 116.384 70.9345 116.051C70.9345 115.731 70.8637 115.453 70.7221 115.216C70.5806 114.979 70.3805 114.794 70.122 114.662C69.8665 114.53 69.5649 114.463 69.2172 114.463C68.8909 114.463 68.5832 114.523 68.2939 114.643C68.0076 114.76 67.7737 114.931 67.5922 115.156C67.4106 115.377 67.3121 115.645 67.2967 115.959H66.1887C66.2072 115.464 66.3565 115.03 66.6365 114.657C66.9166 114.282 67.2828 113.989 67.7353 113.78C68.1908 113.571 68.6909 113.466 69.2356 113.466C69.8204 113.466 70.322 113.585 70.7406 113.822C71.1592 114.056 71.4808 114.365 71.7054 114.75C71.9301 115.134 72.0424 115.55 72.0424 115.996C72.0424 116.528 71.9024 116.982 71.6223 117.358C71.3453 117.733 70.9683 117.993 70.4913 118.138V118.212C71.0884 118.31 71.5546 118.564 71.8901 118.974C72.2256 119.38 72.3933 119.883 72.3933 120.483C72.3933 120.997 72.2533 121.459 71.9732 121.868C71.6962 122.274 71.3176 122.594 70.8375 122.828C70.3574 123.062 69.8111 123.179 69.1987 123.179ZM77.2914 113.466C77.6792 113.469 78.0669 113.543 78.4547 113.688C78.8425 113.832 79.1964 114.072 79.5165 114.408C79.8366 114.74 80.0936 115.194 80.2875 115.77C80.4814 116.345 80.5783 117.067 80.5783 117.935C80.5783 118.775 80.4983 119.521 80.3382 120.174C80.1813 120.823 79.9535 121.371 79.655 121.817C79.3596 122.264 78.9995 122.602 78.5748 122.833C78.1531 123.064 77.6761 123.179 77.1436 123.179C76.6143 123.179 76.1419 123.075 75.7264 122.865C75.314 122.653 74.9754 122.359 74.7108 121.984C74.4492 121.605 74.2814 121.166 74.2076 120.668H75.334C75.4355 121.102 75.6371 121.46 75.9387 121.744C76.2434 122.024 76.6451 122.164 77.1436 122.164C77.873 122.164 78.4486 121.845 78.8702 121.208C79.2949 120.571 79.5073 119.671 79.5073 118.507H79.4334C79.2611 118.766 79.0564 118.989 78.8194 119.177C78.5824 119.365 78.3193 119.509 78.03 119.611C77.7407 119.712 77.4329 119.763 77.1067 119.763C76.565 119.763 76.068 119.629 75.6156 119.361C75.1663 119.091 74.8062 118.72 74.5353 118.249C74.2676 117.775 74.1337 117.233 74.1337 116.624C74.1337 116.045 74.263 115.516 74.5215 115.036C74.7831 114.553 75.1493 114.168 75.6202 113.882C76.0942 113.595 76.6512 113.457 77.2914 113.466ZM77.2914 114.482C76.9036 114.482 76.5543 114.579 76.2434 114.773C75.9357 114.963 75.691 115.222 75.5094 115.548C75.3309 115.871 75.2417 116.23 75.2417 116.624C75.2417 117.018 75.3278 117.376 75.5002 117.699C75.6756 118.02 75.9141 118.275 76.2157 118.466C76.5204 118.654 76.8667 118.747 77.2544 118.747C77.5468 118.747 77.8192 118.69 78.0716 118.577C78.3239 118.46 78.544 118.301 78.7317 118.101C78.9225 117.898 79.0718 117.669 79.1795 117.413C79.2872 117.155 79.3411 116.885 79.3411 116.605C79.3411 116.236 79.2518 115.89 79.0733 115.567C78.8979 115.244 78.6548 114.982 78.3439 114.782C78.0362 114.582 77.6853 114.482 77.2914 114.482ZM82.1721 121.111V120.169L86.327 113.595H87.0102V115.054H86.5486L83.4094 120.022V120.095H89.0045V121.111H82.1721ZM86.6224 123.05V120.825V120.386V113.595H87.7119V123.05H86.6224ZM91.9337 121.757L91.8598 122.256C91.8075 122.607 91.7275 122.982 91.6198 123.382C91.5151 123.782 91.4059 124.159 91.292 124.513C91.1781 124.867 91.0843 125.149 91.0104 125.358H90.1794C90.2194 125.161 90.2718 124.901 90.3364 124.578C90.401 124.255 90.4656 123.893 90.5303 123.493C90.598 123.096 90.6534 122.69 90.6965 122.274L90.7519 121.757H91.9337ZM96.6875 123.179C95.992 123.179 95.3995 122.99 94.9102 122.611C94.4208 122.23 94.0469 121.677 93.7884 120.954C93.5298 120.228 93.4006 119.351 93.4006 118.323C93.4006 117.301 93.5298 116.428 93.7884 115.705C94.05 114.979 94.4254 114.425 94.9148 114.043C95.4072 113.659 95.9981 113.466 96.6875 113.466C97.3769 113.466 97.9663 113.659 98.4556 114.043C98.948 114.425 99.3235 114.979 99.582 115.705C99.8436 116.428 99.9744 117.301 99.9744 118.323C99.9744 119.351 99.8452 120.228 99.5866 120.954C99.3281 121.677 98.9542 122.23 98.4648 122.611C97.9755 122.99 97.383 123.179 96.6875 123.179ZM96.6875 122.164C97.3769 122.164 97.9124 121.831 98.294 121.166C98.6757 120.502 98.8665 119.554 98.8665 118.323C98.8665 117.504 98.7788 116.807 98.6033 116.231C98.431 115.656 98.1817 115.217 97.8555 114.916C97.5323 114.614 97.143 114.463 96.6875 114.463C96.0043 114.463 95.4703 114.8 95.0856 115.474C94.7009 116.145 94.5085 117.095 94.5085 118.323C94.5085 119.141 94.5947 119.837 94.767 120.409C94.9394 120.982 95.1871 121.417 95.5103 121.716C95.8365 122.014 96.2289 122.164 96.6875 122.164ZM104.812 123.179C104.117 123.179 103.525 122.99 103.035 122.611C102.546 122.23 102.172 121.677 101.913 120.954C101.655 120.228 101.526 119.351 101.526 118.323C101.526 117.301 101.655 116.428 101.913 115.705C102.175 114.979 102.55 114.425 103.04 114.043C103.532 113.659 104.123 113.466 104.812 113.466C105.502 113.466 106.091 113.659 106.581 114.043C107.073 114.425 107.449 114.979 107.707 115.705C107.969 116.428 108.099 117.301 108.099 118.323C108.099 119.351 107.97 120.228 107.712 120.954C107.453 121.677 107.079 122.23 106.59 122.611C106.1 122.99 105.508 123.179 104.812 123.179ZM104.812 122.164C105.502 122.164 106.037 121.831 106.419 121.166C106.801 120.502 106.991 119.554 106.991 118.323C106.991 117.504 106.904 116.807 106.728 116.231C106.556 115.656 106.307 115.217 105.98 114.916C105.657 114.614 105.268 114.463 104.812 114.463C104.129 114.463 103.595 114.8 103.211 115.474C102.826 116.145 102.634 117.095 102.634 118.323C102.634 119.141 102.72 119.837 102.892 120.409C103.064 120.982 103.312 121.417 103.635 121.716C103.962 122.014 104.354 122.164 104.812 122.164ZM112.938 123.179C112.242 123.179 111.65 122.99 111.16 122.611C110.671 122.23 110.297 121.677 110.038 120.954C109.78 120.228 109.651 119.351 109.651 118.323C109.651 117.301 109.78 116.428 110.038 115.705C110.3 114.979 110.675 114.425 111.165 114.043C111.657 113.659 112.248 113.466 112.938 113.466C113.627 113.466 114.216 113.659 114.706 114.043C115.198 114.425 115.574 114.979 115.832 115.705C116.094 116.428 116.224 117.301 116.224 118.323C116.224 119.351 116.095 120.228 115.837 120.954C115.578 121.677 115.204 122.23 114.715 122.611C114.225 122.99 113.633 123.179 112.938 123.179ZM112.938 122.164C113.627 122.164 114.162 121.831 114.544 121.166C114.926 120.502 115.116 119.554 115.116 118.323C115.116 117.504 115.029 116.807 114.853 116.231C114.681 115.656 114.432 115.217 114.105 114.916C113.782 114.614 113.393 114.463 112.938 114.463C112.254 114.463 111.72 114.8 111.336 115.474C110.951 116.145 110.759 117.095 110.759 118.323C110.759 119.141 110.845 119.837 111.017 120.409C111.189 120.982 111.437 121.417 111.76 121.716C112.087 122.014 112.479 122.164 112.938 122.164Z" fill="#FFFCFC"/>
<path d="M69.4272 82.1792C68.8178 82.1792 68.2746 82.0746 67.7976 81.8653C67.3236 81.656 66.9466 81.3652 66.6665 80.9928C66.3896 80.6173 66.2388 80.1819 66.2141 79.6864H67.3775C67.4021 79.991 67.5067 80.2542 67.6914 80.4758C67.8761 80.6943 68.1177 80.8636 68.4162 80.9836C68.7147 81.1036 69.0456 81.1636 69.4087 81.1636C69.815 81.1636 70.1751 81.0928 70.489 80.9513C70.8029 80.8097 71.0491 80.6127 71.2276 80.3604C71.4061 80.108 71.4954 79.8156 71.4954 79.4832C71.4954 79.1355 71.4092 78.8292 71.2369 78.5645C71.0645 78.2968 70.8121 78.0875 70.4798 77.9367C70.1474 77.7859 69.7411 77.7105 69.261 77.7105H68.5039V76.6949H69.261C69.6365 76.6949 69.9658 76.6272 70.2489 76.4917C70.5352 76.3563 70.7583 76.1655 70.9183 75.9193C71.0814 75.6731 71.163 75.3838 71.163 75.0514C71.163 74.7313 71.0922 74.4528 70.9506 74.2158C70.8091 73.9788 70.609 73.7942 70.3505 73.6618C70.0951 73.5295 69.7934 73.4633 69.4457 73.4633C69.1194 73.4633 68.8117 73.5234 68.5224 73.6434C68.2362 73.7603 68.0022 73.9311 67.8207 74.1558C67.6391 74.3774 67.5406 74.6452 67.5252 74.9591H66.4173C66.4357 74.4636 66.585 74.0296 66.8651 73.6572C67.1451 73.2818 67.5114 72.9894 67.9638 72.7801C68.4193 72.5708 68.9194 72.4662 69.4641 72.4662C70.0489 72.4662 70.5505 72.5847 70.9691 72.8216C71.3877 73.0556 71.7093 73.3649 71.9339 73.7496C72.1586 74.1343 72.271 74.5498 72.271 74.996C72.271 75.5284 72.1309 75.9824 71.8509 76.3579C71.5739 76.7333 71.1969 76.9934 70.7198 77.1381V77.2119C71.3169 77.3104 71.7831 77.5643 72.1186 77.9736C72.4541 78.3799 72.6218 78.8831 72.6218 79.4832C72.6218 79.9972 72.4818 80.4588 72.2017 80.8682C71.9247 81.2744 71.5462 81.5945 71.0661 81.8284C70.5859 82.0623 70.0397 82.1792 69.4272 82.1792ZM77.5199 72.4662C77.9077 72.4693 78.2955 72.5431 78.6832 72.6878C79.071 72.8324 79.425 73.0725 79.745 73.4079C80.0651 73.7403 80.3221 74.1943 80.516 74.7698C80.7099 75.3453 80.8068 76.067 80.8068 76.9349C80.8068 77.7751 80.7268 78.5215 80.5668 79.1739C80.4098 79.8233 80.1821 80.3711 79.8835 80.8174C79.5881 81.2636 79.228 81.6022 78.8033 81.833C78.3816 82.0638 77.9046 82.1792 77.3722 82.1792C76.8428 82.1792 76.3704 82.0746 75.9549 81.8653C75.5425 81.653 75.204 81.3591 74.9393 80.9836C74.6777 80.605 74.5099 80.1665 74.4361 79.6679H75.5625C75.6641 80.1018 75.8656 80.4604 76.1673 80.7435C76.4719 81.0236 76.8736 81.1636 77.3722 81.1636C78.1016 81.1636 78.6771 80.8451 79.0987 80.208C79.5234 79.5709 79.7358 78.6707 79.7358 77.5074H79.6619C79.4896 77.7659 79.2849 77.989 79.0479 78.1768C78.811 78.3645 78.5478 78.5091 78.2585 78.6107C77.9692 78.7123 77.6615 78.7631 77.3352 78.7631C76.7936 78.7631 76.2965 78.6292 75.8441 78.3614C75.3948 78.0906 75.0347 77.7197 74.7638 77.2489C74.4961 76.7749 74.3622 76.2332 74.3622 75.6239C74.3622 75.0453 74.4915 74.5159 74.75 74.0358C75.0116 73.5526 75.3778 73.1679 75.8487 72.8817C76.3227 72.5954 76.8797 72.4569 77.5199 72.4662ZM77.5199 73.4818C77.1321 73.4818 76.7828 73.5788 76.4719 73.7726C76.1642 73.9635 75.9195 74.222 75.7379 74.5482C75.5594 74.8714 75.4702 75.2299 75.4702 75.6239C75.4702 76.0178 75.5563 76.3763 75.7287 76.6995C75.9041 77.0196 76.1426 77.275 76.4442 77.4658C76.7489 77.6536 77.0952 77.7474 77.483 77.7474C77.7753 77.7474 78.0477 77.6905 78.3001 77.5766C78.5524 77.4597 78.7725 77.3012 78.9602 77.1011C79.151 76.898 79.3003 76.6687 79.408 76.4133C79.5157 76.1547 79.5696 75.8855 79.5696 75.6054C79.5696 75.2361 79.4804 74.8898 79.3018 74.5667C79.1264 74.2435 78.8833 73.9819 78.5724 73.7819C78.2647 73.5818 77.9138 73.4818 77.5199 73.4818ZM85.7615 82.1792C85.3737 82.1731 84.9859 82.0992 84.5981 81.9577C84.2103 81.8161 83.8564 81.5776 83.5363 81.2421C83.2162 80.9036 82.9593 80.4465 82.7654 79.871C82.5715 79.2924 82.4745 78.5661 82.4745 77.692C82.4745 76.8549 82.553 76.1132 82.71 75.4669C82.8669 74.8175 83.0947 74.2712 83.3932 73.828C83.6917 73.3818 84.0518 73.0432 84.4735 72.8124C84.8982 72.5816 85.3767 72.4662 85.9092 72.4662C86.4385 72.4662 86.9094 72.5724 87.3218 72.7847C87.7373 72.994 88.0758 73.2864 88.3374 73.6618C88.599 74.0373 88.7683 74.4697 88.8453 74.9591H87.7188C87.6142 74.5344 87.4111 74.182 87.1095 73.9019C86.8079 73.6218 86.4078 73.4818 85.9092 73.4818C85.1767 73.4818 84.5996 73.8003 84.178 74.4374C83.7594 75.0745 83.5486 75.9685 83.5455 77.1196H83.6194C83.7918 76.858 83.9964 76.6349 84.2334 76.4502C84.4735 76.2625 84.7381 76.1178 85.0274 76.0163C85.3167 75.9147 85.623 75.8639 85.9461 75.8639C86.4878 75.8639 86.9833 75.9993 87.4326 76.2702C87.882 76.5379 88.242 76.9088 88.5129 77.3827C88.7837 77.8536 88.9191 78.3937 88.9191 79.0031C88.9191 79.5879 88.7883 80.1234 88.5267 80.6096C88.2651 81.0928 87.8973 81.4775 87.4234 81.7638C86.9525 82.0469 86.3985 82.1854 85.7615 82.1792ZM85.7615 81.1636C86.1492 81.1636 86.497 81.0667 86.8048 80.8728C87.1156 80.6789 87.3603 80.4188 87.5388 80.0926C87.7204 79.7664 87.8112 79.4032 87.8112 79.0031C87.8112 78.6123 87.7235 78.2568 87.548 77.9367C87.3757 77.6136 87.1372 77.3566 86.8325 77.1658C86.5309 76.9749 86.1862 76.8795 85.7984 76.8795C85.506 76.8795 85.2336 76.938 84.9813 77.055C84.7289 77.1688 84.5073 77.3258 84.3165 77.5258C84.1288 77.7259 83.981 77.9552 83.8733 78.2137C83.7656 78.4691 83.7117 78.7384 83.7117 79.0216C83.7117 79.3971 83.7994 79.7479 83.9749 80.0741C84.1534 80.4004 84.3965 80.6635 84.7043 80.8636C85.0151 81.0636 85.3675 81.1636 85.7615 81.1636ZM91.9337 80.7574L91.8598 81.256C91.8075 81.6068 91.7275 81.9823 91.6198 82.3824C91.5151 82.7825 91.4059 83.1595 91.292 83.5134C91.1781 83.8673 91.0843 84.1489 91.0104 84.3582H90.1794C90.2194 84.1613 90.2718 83.9012 90.3364 83.578C90.401 83.2549 90.4656 82.8933 90.5303 82.4932C90.598 82.0962 90.6534 81.6899 90.6965 81.2744L90.7519 80.7574H91.9337ZM96.6875 82.1792C95.992 82.1792 95.3995 81.99 94.9102 81.6114C94.4208 81.2298 94.0469 80.6774 93.7884 79.9541C93.5298 79.2278 93.4006 78.3507 93.4006 77.3227C93.4006 76.3009 93.5298 75.4284 93.7884 74.7052C94.05 73.9788 94.4254 73.4249 94.9148 73.0432C95.4072 72.6585 95.9981 72.4662 96.6875 72.4662C97.3769 72.4662 97.9663 72.6585 98.4556 73.0432C98.948 73.4249 99.3235 73.9788 99.582 74.7052C99.8436 75.4284 99.9744 76.3009 99.9744 77.3227C99.9744 78.3507 99.8452 79.2278 99.5866 79.9541C99.3281 80.6774 98.9542 81.2298 98.4648 81.6114C97.9755 81.99 97.383 82.1792 96.6875 82.1792ZM96.6875 81.1636C97.3769 81.1636 97.9124 80.8312 98.294 80.1665C98.6757 79.5017 98.8665 78.5538 98.8665 77.3227C98.8665 76.5041 98.7788 75.807 98.6033 75.2315C98.431 74.6559 98.1817 74.2174 97.8555 73.9158C97.5323 73.6141 97.143 73.4633 96.6875 73.4633C96.0043 73.4633 95.4703 73.8003 95.0856 74.4743C94.7009 75.1453 94.5085 76.0947 94.5085 77.3227C94.5085 78.1414 94.5947 78.8369 94.767 79.4094C94.9394 79.9818 95.1871 80.4173 95.5103 80.7158C95.8365 81.0144 96.2289 81.1636 96.6875 81.1636ZM104.812 82.1792C104.117 82.1792 103.525 81.99 103.035 81.6114C102.546 81.2298 102.172 80.6774 101.913 79.9541C101.655 79.2278 101.526 78.3507 101.526 77.3227C101.526 76.3009 101.655 75.4284 101.913 74.7052C102.175 73.9788 102.55 73.4249 103.04 73.0432C103.532 72.6585 104.123 72.4662 104.812 72.4662C105.502 72.4662 106.091 72.6585 106.581 73.0432C107.073 73.4249 107.449 73.9788 107.707 74.7052C107.969 75.4284 108.099 76.3009 108.099 77.3227C108.099 78.3507 107.97 79.2278 107.712 79.9541C107.453 80.6774 107.079 81.2298 106.59 81.6114C106.1 81.99 105.508 82.1792 104.812 82.1792ZM104.812 81.1636C105.502 81.1636 106.037 80.8312 106.419 80.1665C106.801 79.5017 106.991 78.5538 106.991 77.3227C106.991 76.5041 106.904 75.807 106.728 75.2315C106.556 74.6559 106.307 74.2174 105.98 73.9158C105.657 73.6141 105.268 73.4633 104.812 73.4633C104.129 73.4633 103.595 73.8003 103.211 74.4743C102.826 75.1453 102.634 76.0947 102.634 77.3227C102.634 78.1414 102.72 78.8369 102.892 79.4094C103.064 79.9818 103.312 80.4173 103.635 80.7158C103.962 81.0144 104.354 81.1636 104.812 81.1636ZM112.938 82.1792C112.242 82.1792 111.65 81.99 111.16 81.6114C110.671 81.2298 110.297 80.6774 110.038 79.9541C109.78 79.2278 109.651 78.3507 109.651 77.3227C109.651 76.3009 109.78 75.4284 110.038 74.7052C110.3 73.9788 110.675 73.4249 111.165 73.0432C111.657 72.6585 112.248 72.4662 112.938 72.4662C113.627 72.4662 114.216 72.6585 114.706 73.0432C115.198 73.4249 115.574 73.9788 115.832 74.7052C116.094 75.4284 116.224 76.3009 116.224 77.3227C116.224 78.3507 116.095 79.2278 115.837 79.9541C115.578 80.6774 115.204 81.2298 114.715 81.6114C114.225 81.99 113.633 82.1792 112.938 82.1792ZM112.938 81.1636C113.627 81.1636 114.162 80.8312 114.544 80.1665C114.926 79.5017 115.116 78.5538 115.116 77.3227C115.116 76.5041 115.029 75.807 114.853 75.2315C114.681 74.6559 114.432 74.2174 114.105 73.9158C113.782 73.6141 113.393 73.4633 112.938 73.4633C112.254 73.4633 111.72 73.8003 111.336 74.4743C110.951 75.1453 110.759 76.0947 110.759 77.3227C110.759 78.1414 110.845 78.8369 111.017 79.4094C111.189 79.9818 111.437 80.4173 111.76 80.7158C112.087 81.0144 112.479 81.1636 112.938 81.1636Z" fill="#FFFCFC"/>
</g>
<defs>
<clipPath id="clip0_18_127">
<rect width="748" height="400" fill="white"/>
</clipPath>
</defs>
</svg>
